G04 #@! TF.GenerationSoftware,KiCad,Pcbnew,5.1.5*
G04 #@! TF.CreationDate,2020-01-14T22:00:11+01:00*
G04 #@! TF.ProjectId,flipdot-brose,666c6970-646f-4742-9d62-726f73652e6b,rev?*
G04 #@! TF.SameCoordinates,Original*
G04 #@! TF.FileFunction,Legend,Top*
G04 #@! TF.FilePolarity,Positive*
%FSLAX46Y46*%
G04 Gerber Fmt 4.6, Leading zero omitted, Abs format (unit mm)*
G04 Created by KiCad (PCBNEW 5.1.5) date 2020-01-14 22:00:11*
%MOMM*%
%LPD*%
G04 APERTURE LIST*
%ADD10C,0.150000*%
%ADD11C,0.300000*%
%ADD12C,0.100000*%
%ADD13C,0.120000*%
G04 APERTURE END LIST*
D10*
X193640476Y-56603571D02*
X193307142Y-56603571D01*
X193307142Y-57127380D02*
X193307142Y-56127380D01*
X193783333Y-56127380D01*
X194164285Y-56127380D02*
X194164285Y-56936904D01*
X194211904Y-57032142D01*
X194259523Y-57079761D01*
X194354761Y-57127380D01*
X194545238Y-57127380D01*
X194640476Y-57079761D01*
X194688095Y-57032142D01*
X194735714Y-56936904D01*
X194735714Y-56127380D01*
X195164285Y-57079761D02*
X195307142Y-57127380D01*
X195545238Y-57127380D01*
X195640476Y-57079761D01*
X195688095Y-57032142D01*
X195735714Y-56936904D01*
X195735714Y-56841666D01*
X195688095Y-56746428D01*
X195640476Y-56698809D01*
X195545238Y-56651190D01*
X195354761Y-56603571D01*
X195259523Y-56555952D01*
X195211904Y-56508333D01*
X195164285Y-56413095D01*
X195164285Y-56317857D01*
X195211904Y-56222619D01*
X195259523Y-56175000D01*
X195354761Y-56127380D01*
X195592857Y-56127380D01*
X195735714Y-56175000D01*
X196164285Y-56603571D02*
X196497619Y-56603571D01*
X196640476Y-57127380D02*
X196164285Y-57127380D01*
X196164285Y-56127380D01*
X196640476Y-56127380D01*
X193759523Y-57872619D02*
X193807142Y-57825000D01*
X193902380Y-57777380D01*
X194140476Y-57777380D01*
X194235714Y-57825000D01*
X194283333Y-57872619D01*
X194330952Y-57967857D01*
X194330952Y-58063095D01*
X194283333Y-58205952D01*
X193711904Y-58777380D01*
X194330952Y-58777380D01*
X195188095Y-58110714D02*
X195188095Y-58777380D01*
X194950000Y-57729761D02*
X194711904Y-58444047D01*
X195330952Y-58444047D01*
X195569047Y-57777380D02*
X195902380Y-58777380D01*
X196235714Y-57777380D01*
D11*
X260457142Y-112761904D02*
X260552380Y-112476190D01*
X260647619Y-112380952D01*
X260838095Y-112285714D01*
X261123809Y-112285714D01*
X261314285Y-112380952D01*
X261409523Y-112476190D01*
X261504761Y-112666666D01*
X261504761Y-113428571D01*
X259504761Y-113428571D01*
X259504761Y-112761904D01*
X259600000Y-112571428D01*
X259695238Y-112476190D01*
X259885714Y-112380952D01*
X260076190Y-112380952D01*
X260266666Y-112476190D01*
X260361904Y-112571428D01*
X260457142Y-112761904D01*
X260457142Y-113428571D01*
X261504761Y-110285714D02*
X260552380Y-110952380D01*
X261504761Y-111428571D02*
X259504761Y-111428571D01*
X259504761Y-110666666D01*
X259600000Y-110476190D01*
X259695238Y-110380952D01*
X259885714Y-110285714D01*
X260171428Y-110285714D01*
X260361904Y-110380952D01*
X260457142Y-110476190D01*
X260552380Y-110666666D01*
X260552380Y-111428571D01*
X259504761Y-109047619D02*
X259504761Y-108666666D01*
X259600000Y-108476190D01*
X259790476Y-108285714D01*
X260171428Y-108190476D01*
X260838095Y-108190476D01*
X261219047Y-108285714D01*
X261409523Y-108476190D01*
X261504761Y-108666666D01*
X261504761Y-109047619D01*
X261409523Y-109238095D01*
X261219047Y-109428571D01*
X260838095Y-109523809D01*
X260171428Y-109523809D01*
X259790476Y-109428571D01*
X259600000Y-109238095D01*
X259504761Y-109047619D01*
X261409523Y-107428571D02*
X261504761Y-107142857D01*
X261504761Y-106666666D01*
X261409523Y-106476190D01*
X261314285Y-106380952D01*
X261123809Y-106285714D01*
X260933333Y-106285714D01*
X260742857Y-106380952D01*
X260647619Y-106476190D01*
X260552380Y-106666666D01*
X260457142Y-107047619D01*
X260361904Y-107238095D01*
X260266666Y-107333333D01*
X260076190Y-107428571D01*
X259885714Y-107428571D01*
X259695238Y-107333333D01*
X259600000Y-107238095D01*
X259504761Y-107047619D01*
X259504761Y-106571428D01*
X259600000Y-106285714D01*
X260457142Y-105428571D02*
X260457142Y-104761904D01*
X261504761Y-104476190D02*
X261504761Y-105428571D01*
X259504761Y-105428571D01*
X259504761Y-104476190D01*
X260457142Y-101428571D02*
X260457142Y-102095238D01*
X261504761Y-102095238D02*
X259504761Y-102095238D01*
X259504761Y-101142857D01*
X261504761Y-100095238D02*
X261409523Y-100285714D01*
X261219047Y-100380952D01*
X259504761Y-100380952D01*
X261504761Y-99333333D02*
X260171428Y-99333333D01*
X259504761Y-99333333D02*
X259600000Y-99428571D01*
X259695238Y-99333333D01*
X259600000Y-99238095D01*
X259504761Y-99333333D01*
X259695238Y-99333333D01*
X260171428Y-98380952D02*
X262171428Y-98380952D01*
X260266666Y-98380952D02*
X260171428Y-98190476D01*
X260171428Y-97809523D01*
X260266666Y-97619047D01*
X260361904Y-97523809D01*
X260552380Y-97428571D01*
X261123809Y-97428571D01*
X261314285Y-97523809D01*
X261409523Y-97619047D01*
X261504761Y-97809523D01*
X261504761Y-98190476D01*
X261409523Y-98380952D01*
X261504761Y-95714285D02*
X259504761Y-95714285D01*
X261409523Y-95714285D02*
X261504761Y-95904761D01*
X261504761Y-96285714D01*
X261409523Y-96476190D01*
X261314285Y-96571428D01*
X261123809Y-96666666D01*
X260552380Y-96666666D01*
X260361904Y-96571428D01*
X260266666Y-96476190D01*
X260171428Y-96285714D01*
X260171428Y-95904761D01*
X260266666Y-95714285D01*
X261504761Y-94476190D02*
X261409523Y-94666666D01*
X261314285Y-94761904D01*
X261123809Y-94857142D01*
X260552380Y-94857142D01*
X260361904Y-94761904D01*
X260266666Y-94666666D01*
X260171428Y-94476190D01*
X260171428Y-94190476D01*
X260266666Y-94000000D01*
X260361904Y-93904761D01*
X260552380Y-93809523D01*
X261123809Y-93809523D01*
X261314285Y-93904761D01*
X261409523Y-94000000D01*
X261504761Y-94190476D01*
X261504761Y-94476190D01*
X260171428Y-93238095D02*
X260171428Y-92476190D01*
X259504761Y-92952380D02*
X261219047Y-92952380D01*
X261409523Y-92857142D01*
X261504761Y-92666666D01*
X261504761Y-92476190D01*
X261314285Y-89142857D02*
X261409523Y-89238095D01*
X261504761Y-89523809D01*
X261504761Y-89714285D01*
X261409523Y-90000000D01*
X261219047Y-90190476D01*
X261028571Y-90285714D01*
X260647619Y-90380952D01*
X260361904Y-90380952D01*
X259980952Y-90285714D01*
X259790476Y-90190476D01*
X259600000Y-90000000D01*
X259504761Y-89714285D01*
X259504761Y-89523809D01*
X259600000Y-89238095D01*
X259695238Y-89142857D01*
X261504761Y-88000000D02*
X261409523Y-88190476D01*
X261314285Y-88285714D01*
X261123809Y-88380952D01*
X260552380Y-88380952D01*
X260361904Y-88285714D01*
X260266666Y-88190476D01*
X260171428Y-88000000D01*
X260171428Y-87714285D01*
X260266666Y-87523809D01*
X260361904Y-87428571D01*
X260552380Y-87333333D01*
X261123809Y-87333333D01*
X261314285Y-87428571D01*
X261409523Y-87523809D01*
X261504761Y-87714285D01*
X261504761Y-88000000D01*
X260171428Y-86476190D02*
X261504761Y-86476190D01*
X260361904Y-86476190D02*
X260266666Y-86380952D01*
X260171428Y-86190476D01*
X260171428Y-85904761D01*
X260266666Y-85714285D01*
X260457142Y-85619047D01*
X261504761Y-85619047D01*
X260171428Y-84952380D02*
X260171428Y-84190476D01*
X259504761Y-84666666D02*
X261219047Y-84666666D01*
X261409523Y-84571428D01*
X261504761Y-84380952D01*
X261504761Y-84190476D01*
X261504761Y-83523809D02*
X260171428Y-83523809D01*
X260552380Y-83523809D02*
X260361904Y-83428571D01*
X260266666Y-83333333D01*
X260171428Y-83142857D01*
X260171428Y-82952380D01*
X261504761Y-82000000D02*
X261409523Y-82190476D01*
X261314285Y-82285714D01*
X261123809Y-82380952D01*
X260552380Y-82380952D01*
X260361904Y-82285714D01*
X260266666Y-82190476D01*
X260171428Y-82000000D01*
X260171428Y-81714285D01*
X260266666Y-81523809D01*
X260361904Y-81428571D01*
X260552380Y-81333333D01*
X261123809Y-81333333D01*
X261314285Y-81428571D01*
X261409523Y-81523809D01*
X261504761Y-81714285D01*
X261504761Y-82000000D01*
X261504761Y-80190476D02*
X261409523Y-80380952D01*
X261219047Y-80476190D01*
X259504761Y-80476190D01*
X261504761Y-79142857D02*
X261409523Y-79333333D01*
X261219047Y-79428571D01*
X259504761Y-79428571D01*
X261409523Y-77619047D02*
X261504761Y-77809523D01*
X261504761Y-78190476D01*
X261409523Y-78380952D01*
X261219047Y-78476190D01*
X260457142Y-78476190D01*
X260266666Y-78380952D01*
X260171428Y-78190476D01*
X260171428Y-77809523D01*
X260266666Y-77619047D01*
X260457142Y-77523809D01*
X260647619Y-77523809D01*
X260838095Y-78476190D01*
X261504761Y-76666666D02*
X260171428Y-76666666D01*
X260552380Y-76666666D02*
X260361904Y-76571428D01*
X260266666Y-76476190D01*
X260171428Y-76285714D01*
X260171428Y-76095238D01*
X260171428Y-74095238D02*
X261504761Y-73619047D01*
X260171428Y-73142857D01*
X261504761Y-71333333D02*
X261504761Y-72476190D01*
X261504761Y-71904761D02*
X259504761Y-71904761D01*
X259790476Y-72095238D01*
X259980952Y-72285714D01*
X260076190Y-72476190D01*
X261314285Y-70476190D02*
X261409523Y-70380952D01*
X261504761Y-70476190D01*
X261409523Y-70571428D01*
X261314285Y-70476190D01*
X261504761Y-70476190D01*
X261504761Y-68476190D02*
X261504761Y-69619047D01*
X261504761Y-69047619D02*
X259504761Y-69047619D01*
X259790476Y-69238095D01*
X259980952Y-69428571D01*
X260076190Y-69619047D01*
X255807142Y-97957142D02*
X255902380Y-97671428D01*
X255997619Y-97576190D01*
X256188095Y-97480952D01*
X256473809Y-97480952D01*
X256664285Y-97576190D01*
X256759523Y-97671428D01*
X256854761Y-97861904D01*
X256854761Y-98623809D01*
X254854761Y-98623809D01*
X254854761Y-97957142D01*
X254950000Y-97766666D01*
X255045238Y-97671428D01*
X255235714Y-97576190D01*
X255426190Y-97576190D01*
X255616666Y-97671428D01*
X255711904Y-97766666D01*
X255807142Y-97957142D01*
X255807142Y-98623809D01*
X256854761Y-95480952D02*
X255902380Y-96147619D01*
X256854761Y-96623809D02*
X254854761Y-96623809D01*
X254854761Y-95861904D01*
X254950000Y-95671428D01*
X255045238Y-95576190D01*
X255235714Y-95480952D01*
X255521428Y-95480952D01*
X255711904Y-95576190D01*
X255807142Y-95671428D01*
X255902380Y-95861904D01*
X255902380Y-96623809D01*
X254854761Y-94242857D02*
X254854761Y-93861904D01*
X254950000Y-93671428D01*
X255140476Y-93480952D01*
X255521428Y-93385714D01*
X256188095Y-93385714D01*
X256569047Y-93480952D01*
X256759523Y-93671428D01*
X256854761Y-93861904D01*
X256854761Y-94242857D01*
X256759523Y-94433333D01*
X256569047Y-94623809D01*
X256188095Y-94719047D01*
X255521428Y-94719047D01*
X255140476Y-94623809D01*
X254950000Y-94433333D01*
X254854761Y-94242857D01*
X256759523Y-92623809D02*
X256854761Y-92338095D01*
X256854761Y-91861904D01*
X256759523Y-91671428D01*
X256664285Y-91576190D01*
X256473809Y-91480952D01*
X256283333Y-91480952D01*
X256092857Y-91576190D01*
X255997619Y-91671428D01*
X255902380Y-91861904D01*
X255807142Y-92242857D01*
X255711904Y-92433333D01*
X255616666Y-92528571D01*
X255426190Y-92623809D01*
X255235714Y-92623809D01*
X255045238Y-92528571D01*
X254950000Y-92433333D01*
X254854761Y-92242857D01*
X254854761Y-91766666D01*
X254950000Y-91480952D01*
X255807142Y-90623809D02*
X255807142Y-89957142D01*
X256854761Y-89671428D02*
X256854761Y-90623809D01*
X254854761Y-90623809D01*
X254854761Y-89671428D01*
X254854761Y-86433333D02*
X254854761Y-86814285D01*
X254950000Y-87004761D01*
X255045238Y-87100000D01*
X255330952Y-87290476D01*
X255711904Y-87385714D01*
X256473809Y-87385714D01*
X256664285Y-87290476D01*
X256759523Y-87195238D01*
X256854761Y-87004761D01*
X256854761Y-86623809D01*
X256759523Y-86433333D01*
X256664285Y-86338095D01*
X256473809Y-86242857D01*
X255997619Y-86242857D01*
X255807142Y-86338095D01*
X255711904Y-86433333D01*
X255616666Y-86623809D01*
X255616666Y-87004761D01*
X255711904Y-87195238D01*
X255807142Y-87290476D01*
X255997619Y-87385714D01*
X254854761Y-85004761D02*
X254854761Y-84814285D01*
X254950000Y-84623809D01*
X255045238Y-84528571D01*
X255235714Y-84433333D01*
X255616666Y-84338095D01*
X256092857Y-84338095D01*
X256473809Y-84433333D01*
X256664285Y-84528571D01*
X256759523Y-84623809D01*
X256854761Y-84814285D01*
X256854761Y-85004761D01*
X256759523Y-85195238D01*
X256664285Y-85290476D01*
X256473809Y-85385714D01*
X256092857Y-85480952D01*
X255616666Y-85480952D01*
X255235714Y-85385714D01*
X255045238Y-85290476D01*
X254950000Y-85195238D01*
X254854761Y-85004761D01*
X256854761Y-81957142D02*
X254854761Y-81957142D01*
X254854761Y-81195238D01*
X254950000Y-81004761D01*
X255045238Y-80909523D01*
X255235714Y-80814285D01*
X255521428Y-80814285D01*
X255711904Y-80909523D01*
X255807142Y-81004761D01*
X255902380Y-81195238D01*
X255902380Y-81957142D01*
X256854761Y-79957142D02*
X255521428Y-79957142D01*
X254854761Y-79957142D02*
X254950000Y-80052380D01*
X255045238Y-79957142D01*
X254950000Y-79861904D01*
X254854761Y-79957142D01*
X255045238Y-79957142D01*
X255521428Y-79004761D02*
X256854761Y-79004761D01*
X255711904Y-79004761D02*
X255616666Y-78909523D01*
X255521428Y-78719047D01*
X255521428Y-78433333D01*
X255616666Y-78242857D01*
X255807142Y-78147619D01*
X256854761Y-78147619D01*
X256664285Y-74528571D02*
X256759523Y-74623809D01*
X256854761Y-74909523D01*
X256854761Y-75100000D01*
X256759523Y-75385714D01*
X256569047Y-75576190D01*
X256378571Y-75671428D01*
X255997619Y-75766666D01*
X255711904Y-75766666D01*
X255330952Y-75671428D01*
X255140476Y-75576190D01*
X254950000Y-75385714D01*
X254854761Y-75100000D01*
X254854761Y-74909523D01*
X254950000Y-74623809D01*
X255045238Y-74528571D01*
X256854761Y-73385714D02*
X256759523Y-73576190D01*
X256664285Y-73671428D01*
X256473809Y-73766666D01*
X255902380Y-73766666D01*
X255711904Y-73671428D01*
X255616666Y-73576190D01*
X255521428Y-73385714D01*
X255521428Y-73100000D01*
X255616666Y-72909523D01*
X255711904Y-72814285D01*
X255902380Y-72719047D01*
X256473809Y-72719047D01*
X256664285Y-72814285D01*
X256759523Y-72909523D01*
X256854761Y-73100000D01*
X256854761Y-73385714D01*
X255521428Y-71861904D02*
X256854761Y-71861904D01*
X255711904Y-71861904D02*
X255616666Y-71766666D01*
X255521428Y-71576190D01*
X255521428Y-71290476D01*
X255616666Y-71100000D01*
X255807142Y-71004761D01*
X256854761Y-71004761D01*
X255521428Y-70052380D02*
X256854761Y-70052380D01*
X255711904Y-70052380D02*
X255616666Y-69957142D01*
X255521428Y-69766666D01*
X255521428Y-69480952D01*
X255616666Y-69290476D01*
X255807142Y-69195238D01*
X256854761Y-69195238D01*
X256759523Y-67480952D02*
X256854761Y-67671428D01*
X256854761Y-68052380D01*
X256759523Y-68242857D01*
X256569047Y-68338095D01*
X255807142Y-68338095D01*
X255616666Y-68242857D01*
X255521428Y-68052380D01*
X255521428Y-67671428D01*
X255616666Y-67480952D01*
X255807142Y-67385714D01*
X255997619Y-67385714D01*
X256188095Y-68338095D01*
X256759523Y-65671428D02*
X256854761Y-65861904D01*
X256854761Y-66242857D01*
X256759523Y-66433333D01*
X256664285Y-66528571D01*
X256473809Y-66623809D01*
X255902380Y-66623809D01*
X255711904Y-66528571D01*
X255616666Y-66433333D01*
X255521428Y-66242857D01*
X255521428Y-65861904D01*
X255616666Y-65671428D01*
X255521428Y-65100000D02*
X255521428Y-64338095D01*
X254854761Y-64814285D02*
X256569047Y-64814285D01*
X256759523Y-64719047D01*
X256854761Y-64528571D01*
X256854761Y-64338095D01*
X256854761Y-63385714D02*
X256759523Y-63576190D01*
X256664285Y-63671428D01*
X256473809Y-63766666D01*
X255902380Y-63766666D01*
X255711904Y-63671428D01*
X255616666Y-63576190D01*
X255521428Y-63385714D01*
X255521428Y-63100000D01*
X255616666Y-62909523D01*
X255711904Y-62814285D01*
X255902380Y-62719047D01*
X256473809Y-62719047D01*
X256664285Y-62814285D01*
X256759523Y-62909523D01*
X256854761Y-63100000D01*
X256854761Y-63385714D01*
X256854761Y-61861904D02*
X255521428Y-61861904D01*
X255902380Y-61861904D02*
X255711904Y-61766666D01*
X255616666Y-61671428D01*
X255521428Y-61480952D01*
X255521428Y-61290476D01*
D12*
X175995238Y-130101190D02*
X176161904Y-130601190D01*
X176328571Y-130101190D01*
X176471428Y-130577380D02*
X176542857Y-130601190D01*
X176661904Y-130601190D01*
X176709523Y-130577380D01*
X176733333Y-130553571D01*
X176757142Y-130505952D01*
X176757142Y-130458333D01*
X176733333Y-130410714D01*
X176709523Y-130386904D01*
X176661904Y-130363095D01*
X176566666Y-130339285D01*
X176519047Y-130315476D01*
X176495238Y-130291666D01*
X176471428Y-130244047D01*
X176471428Y-130196428D01*
X176495238Y-130148809D01*
X176519047Y-130125000D01*
X176566666Y-130101190D01*
X176685714Y-130101190D01*
X176757142Y-130125000D01*
X175876190Y-131403571D02*
X175852380Y-131427380D01*
X175780952Y-131451190D01*
X175733333Y-131451190D01*
X175661904Y-131427380D01*
X175614285Y-131379761D01*
X175590476Y-131332142D01*
X175566666Y-131236904D01*
X175566666Y-131165476D01*
X175590476Y-131070238D01*
X175614285Y-131022619D01*
X175661904Y-130975000D01*
X175733333Y-130951190D01*
X175780952Y-130951190D01*
X175852380Y-130975000D01*
X175876190Y-130998809D01*
X176161904Y-131451190D02*
X176114285Y-131427380D01*
X176090476Y-131403571D01*
X176066666Y-131355952D01*
X176066666Y-131213095D01*
X176090476Y-131165476D01*
X176114285Y-131141666D01*
X176161904Y-131117857D01*
X176233333Y-131117857D01*
X176280952Y-131141666D01*
X176304761Y-131165476D01*
X176328571Y-131213095D01*
X176328571Y-131355952D01*
X176304761Y-131403571D01*
X176280952Y-131427380D01*
X176233333Y-131451190D01*
X176161904Y-131451190D01*
X176542857Y-131451190D02*
X176542857Y-131117857D01*
X176542857Y-130951190D02*
X176519047Y-130975000D01*
X176542857Y-130998809D01*
X176566666Y-130975000D01*
X176542857Y-130951190D01*
X176542857Y-130998809D01*
X176852380Y-131451190D02*
X176804761Y-131427380D01*
X176780952Y-131379761D01*
X176780952Y-130951190D01*
X177019047Y-131427380D02*
X177066666Y-131451190D01*
X177161904Y-131451190D01*
X177209523Y-131427380D01*
X177233333Y-131379761D01*
X177233333Y-131355952D01*
X177209523Y-131308333D01*
X177161904Y-131284523D01*
X177090476Y-131284523D01*
X177042857Y-131260714D01*
X177019047Y-131213095D01*
X177019047Y-131189285D01*
X177042857Y-131141666D01*
X177090476Y-131117857D01*
X177161904Y-131117857D01*
X177209523Y-131141666D01*
X178019047Y-130410714D02*
X178400000Y-130410714D01*
X178209523Y-130601190D02*
X178209523Y-130220238D01*
X178614285Y-130148809D02*
X178638095Y-130125000D01*
X178685714Y-130101190D01*
X178804761Y-130101190D01*
X178852380Y-130125000D01*
X178876190Y-130148809D01*
X178900000Y-130196428D01*
X178900000Y-130244047D01*
X178876190Y-130315476D01*
X178590476Y-130601190D01*
X178900000Y-130601190D01*
X179328571Y-130267857D02*
X179328571Y-130601190D01*
X179209523Y-130077380D02*
X179090476Y-130434523D01*
X179400000Y-130434523D01*
X179519047Y-130101190D02*
X179685714Y-130601190D01*
X179852380Y-130101190D01*
X178102380Y-131451190D02*
X178102380Y-130951190D01*
X178221428Y-130951190D01*
X178292857Y-130975000D01*
X178340476Y-131022619D01*
X178364285Y-131070238D01*
X178388095Y-131165476D01*
X178388095Y-131236904D01*
X178364285Y-131332142D01*
X178340476Y-131379761D01*
X178292857Y-131427380D01*
X178221428Y-131451190D01*
X178102380Y-131451190D01*
X178602380Y-131451190D02*
X178602380Y-131117857D01*
X178602380Y-130951190D02*
X178578571Y-130975000D01*
X178602380Y-130998809D01*
X178626190Y-130975000D01*
X178602380Y-130951190D01*
X178602380Y-130998809D01*
X178816666Y-131427380D02*
X178864285Y-131451190D01*
X178959523Y-131451190D01*
X179007142Y-131427380D01*
X179030952Y-131379761D01*
X179030952Y-131355952D01*
X179007142Y-131308333D01*
X178959523Y-131284523D01*
X178888095Y-131284523D01*
X178840476Y-131260714D01*
X178816666Y-131213095D01*
X178816666Y-131189285D01*
X178840476Y-131141666D01*
X178888095Y-131117857D01*
X178959523Y-131117857D01*
X179007142Y-131141666D01*
X179245238Y-131117857D02*
X179245238Y-131617857D01*
X179245238Y-131141666D02*
X179292857Y-131117857D01*
X179388095Y-131117857D01*
X179435714Y-131141666D01*
X179459523Y-131165476D01*
X179483333Y-131213095D01*
X179483333Y-131355952D01*
X179459523Y-131403571D01*
X179435714Y-131427380D01*
X179388095Y-131451190D01*
X179292857Y-131451190D01*
X179245238Y-131427380D01*
X179697619Y-131403571D02*
X179721428Y-131427380D01*
X179697619Y-131451190D01*
X179673809Y-131427380D01*
X179697619Y-131403571D01*
X179697619Y-131451190D01*
X185900000Y-130410714D02*
X186280952Y-130410714D01*
X186090476Y-130601190D02*
X186090476Y-130220238D01*
X186471428Y-130101190D02*
X186780952Y-130101190D01*
X186614285Y-130291666D01*
X186685714Y-130291666D01*
X186733333Y-130315476D01*
X186757142Y-130339285D01*
X186780952Y-130386904D01*
X186780952Y-130505952D01*
X186757142Y-130553571D01*
X186733333Y-130577380D01*
X186685714Y-130601190D01*
X186542857Y-130601190D01*
X186495238Y-130577380D01*
X186471428Y-130553571D01*
X186995238Y-130553571D02*
X187019047Y-130577380D01*
X186995238Y-130601190D01*
X186971428Y-130577380D01*
X186995238Y-130553571D01*
X186995238Y-130601190D01*
X187185714Y-130101190D02*
X187495238Y-130101190D01*
X187328571Y-130291666D01*
X187400000Y-130291666D01*
X187447619Y-130315476D01*
X187471428Y-130339285D01*
X187495238Y-130386904D01*
X187495238Y-130505952D01*
X187471428Y-130553571D01*
X187447619Y-130577380D01*
X187400000Y-130601190D01*
X187257142Y-130601190D01*
X187209523Y-130577380D01*
X187185714Y-130553571D01*
X187638095Y-130101190D02*
X187804761Y-130601190D01*
X187971428Y-130101190D01*
X185828571Y-131189285D02*
X185995238Y-131189285D01*
X186066666Y-131451190D02*
X185828571Y-131451190D01*
X185828571Y-130951190D01*
X186066666Y-130951190D01*
X186257142Y-131427380D02*
X186328571Y-131451190D01*
X186447619Y-131451190D01*
X186495238Y-131427380D01*
X186519047Y-131403571D01*
X186542857Y-131355952D01*
X186542857Y-131308333D01*
X186519047Y-131260714D01*
X186495238Y-131236904D01*
X186447619Y-131213095D01*
X186352380Y-131189285D01*
X186304761Y-131165476D01*
X186280952Y-131141666D01*
X186257142Y-131094047D01*
X186257142Y-131046428D01*
X186280952Y-130998809D01*
X186304761Y-130975000D01*
X186352380Y-130951190D01*
X186471428Y-130951190D01*
X186542857Y-130975000D01*
X186757142Y-131451190D02*
X186757142Y-130951190D01*
X186947619Y-130951190D01*
X186995238Y-130975000D01*
X187019047Y-130998809D01*
X187042857Y-131046428D01*
X187042857Y-131117857D01*
X187019047Y-131165476D01*
X186995238Y-131189285D01*
X186947619Y-131213095D01*
X186757142Y-131213095D01*
X187209523Y-130951190D02*
X187519047Y-130951190D01*
X187352380Y-131141666D01*
X187423809Y-131141666D01*
X187471428Y-131165476D01*
X187495238Y-131189285D01*
X187519047Y-131236904D01*
X187519047Y-131355952D01*
X187495238Y-131403571D01*
X187471428Y-131427380D01*
X187423809Y-131451190D01*
X187280952Y-131451190D01*
X187233333Y-131427380D01*
X187209523Y-131403571D01*
X187709523Y-130998809D02*
X187733333Y-130975000D01*
X187780952Y-130951190D01*
X187900000Y-130951190D01*
X187947619Y-130975000D01*
X187971428Y-130998809D01*
X187995238Y-131046428D01*
X187995238Y-131094047D01*
X187971428Y-131165476D01*
X187685714Y-131451190D01*
X187995238Y-131451190D01*
X183257142Y-130410714D02*
X183638095Y-130410714D01*
X183447619Y-130601190D02*
X183447619Y-130220238D01*
X184114285Y-130101190D02*
X183876190Y-130101190D01*
X183852380Y-130339285D01*
X183876190Y-130315476D01*
X183923809Y-130291666D01*
X184042857Y-130291666D01*
X184090476Y-130315476D01*
X184114285Y-130339285D01*
X184138095Y-130386904D01*
X184138095Y-130505952D01*
X184114285Y-130553571D01*
X184090476Y-130577380D01*
X184042857Y-130601190D01*
X183923809Y-130601190D01*
X183876190Y-130577380D01*
X183852380Y-130553571D01*
X184280952Y-130101190D02*
X184447619Y-130601190D01*
X184614285Y-130101190D01*
X183102380Y-131189285D02*
X183173809Y-131213095D01*
X183197619Y-131236904D01*
X183221428Y-131284523D01*
X183221428Y-131355952D01*
X183197619Y-131403571D01*
X183173809Y-131427380D01*
X183126190Y-131451190D01*
X182935714Y-131451190D01*
X182935714Y-130951190D01*
X183102380Y-130951190D01*
X183150000Y-130975000D01*
X183173809Y-130998809D01*
X183197619Y-131046428D01*
X183197619Y-131094047D01*
X183173809Y-131141666D01*
X183150000Y-131165476D01*
X183102380Y-131189285D01*
X182935714Y-131189285D01*
X183507142Y-131451190D02*
X183459523Y-131427380D01*
X183435714Y-131403571D01*
X183411904Y-131355952D01*
X183411904Y-131213095D01*
X183435714Y-131165476D01*
X183459523Y-131141666D01*
X183507142Y-131117857D01*
X183578571Y-131117857D01*
X183626190Y-131141666D01*
X183650000Y-131165476D01*
X183673809Y-131213095D01*
X183673809Y-131355952D01*
X183650000Y-131403571D01*
X183626190Y-131427380D01*
X183578571Y-131451190D01*
X183507142Y-131451190D01*
X184102380Y-131451190D02*
X184102380Y-131189285D01*
X184078571Y-131141666D01*
X184030952Y-131117857D01*
X183935714Y-131117857D01*
X183888095Y-131141666D01*
X184102380Y-131427380D02*
X184054761Y-131451190D01*
X183935714Y-131451190D01*
X183888095Y-131427380D01*
X183864285Y-131379761D01*
X183864285Y-131332142D01*
X183888095Y-131284523D01*
X183935714Y-131260714D01*
X184054761Y-131260714D01*
X184102380Y-131236904D01*
X184340476Y-131451190D02*
X184340476Y-131117857D01*
X184340476Y-131213095D02*
X184364285Y-131165476D01*
X184388095Y-131141666D01*
X184435714Y-131117857D01*
X184483333Y-131117857D01*
X184864285Y-131451190D02*
X184864285Y-130951190D01*
X184864285Y-131427380D02*
X184816666Y-131451190D01*
X184721428Y-131451190D01*
X184673809Y-131427380D01*
X184650000Y-131403571D01*
X184626190Y-131355952D01*
X184626190Y-131213095D01*
X184650000Y-131165476D01*
X184673809Y-131141666D01*
X184721428Y-131117857D01*
X184816666Y-131117857D01*
X184864285Y-131141666D01*
X180757142Y-130410714D02*
X181138095Y-130410714D01*
X180947619Y-130601190D02*
X180947619Y-130220238D01*
X181614285Y-130101190D02*
X181376190Y-130101190D01*
X181352380Y-130339285D01*
X181376190Y-130315476D01*
X181423809Y-130291666D01*
X181542857Y-130291666D01*
X181590476Y-130315476D01*
X181614285Y-130339285D01*
X181638095Y-130386904D01*
X181638095Y-130505952D01*
X181614285Y-130553571D01*
X181590476Y-130577380D01*
X181542857Y-130601190D01*
X181423809Y-130601190D01*
X181376190Y-130577380D01*
X181352380Y-130553571D01*
X181780952Y-130101190D02*
X181947619Y-130601190D01*
X182114285Y-130101190D01*
X180602380Y-131451190D02*
X180602380Y-130951190D01*
X180721428Y-130951190D01*
X180792857Y-130975000D01*
X180840476Y-131022619D01*
X180864285Y-131070238D01*
X180888095Y-131165476D01*
X180888095Y-131236904D01*
X180864285Y-131332142D01*
X180840476Y-131379761D01*
X180792857Y-131427380D01*
X180721428Y-131451190D01*
X180602380Y-131451190D01*
X181102380Y-131451190D02*
X181102380Y-131117857D01*
X181102380Y-130951190D02*
X181078571Y-130975000D01*
X181102380Y-130998809D01*
X181126190Y-130975000D01*
X181102380Y-130951190D01*
X181102380Y-130998809D01*
X181316666Y-131427380D02*
X181364285Y-131451190D01*
X181459523Y-131451190D01*
X181507142Y-131427380D01*
X181530952Y-131379761D01*
X181530952Y-131355952D01*
X181507142Y-131308333D01*
X181459523Y-131284523D01*
X181388095Y-131284523D01*
X181340476Y-131260714D01*
X181316666Y-131213095D01*
X181316666Y-131189285D01*
X181340476Y-131141666D01*
X181388095Y-131117857D01*
X181459523Y-131117857D01*
X181507142Y-131141666D01*
X181745238Y-131117857D02*
X181745238Y-131617857D01*
X181745238Y-131141666D02*
X181792857Y-131117857D01*
X181888095Y-131117857D01*
X181935714Y-131141666D01*
X181959523Y-131165476D01*
X181983333Y-131213095D01*
X181983333Y-131355952D01*
X181959523Y-131403571D01*
X181935714Y-131427380D01*
X181888095Y-131451190D01*
X181792857Y-131451190D01*
X181745238Y-131427380D01*
X182197619Y-131403571D02*
X182221428Y-131427380D01*
X182197619Y-131451190D01*
X182173809Y-131427380D01*
X182197619Y-131403571D01*
X182197619Y-131451190D01*
D10*
X172257142Y-103752380D02*
X171780952Y-103752380D01*
X171780952Y-102752380D01*
X172590476Y-103228571D02*
X172923809Y-103228571D01*
X173066666Y-103752380D02*
X172590476Y-103752380D01*
X172590476Y-102752380D01*
X173066666Y-102752380D01*
X173495238Y-103752380D02*
X173495238Y-102752380D01*
X173733333Y-102752380D01*
X173876190Y-102800000D01*
X173971428Y-102895238D01*
X174019047Y-102990476D01*
X174066666Y-103180952D01*
X174066666Y-103323809D01*
X174019047Y-103514285D01*
X173971428Y-103609523D01*
X173876190Y-103704761D01*
X173733333Y-103752380D01*
X173495238Y-103752380D01*
X175766666Y-104150000D02*
X175700000Y-104116666D01*
X175600000Y-104116666D01*
X175500000Y-104150000D01*
X175433333Y-104216666D01*
X175400000Y-104283333D01*
X175366666Y-104416666D01*
X175366666Y-104516666D01*
X175400000Y-104650000D01*
X175433333Y-104716666D01*
X175500000Y-104783333D01*
X175600000Y-104816666D01*
X175666666Y-104816666D01*
X175766666Y-104783333D01*
X175800000Y-104750000D01*
X175800000Y-104516666D01*
X175666666Y-104516666D01*
X176100000Y-104816666D02*
X176100000Y-104116666D01*
X176500000Y-104816666D01*
X176500000Y-104116666D01*
X176833333Y-104816666D02*
X176833333Y-104116666D01*
X177000000Y-104116666D01*
X177100000Y-104150000D01*
X177166666Y-104216666D01*
X177200000Y-104283333D01*
X177233333Y-104416666D01*
X177233333Y-104516666D01*
X177200000Y-104650000D01*
X177166666Y-104716666D01*
X177100000Y-104783333D01*
X177000000Y-104816666D01*
X176833333Y-104816666D01*
X174950000Y-103616666D02*
X174950000Y-102916666D01*
X175116666Y-102916666D01*
X175216666Y-102950000D01*
X175283333Y-103016666D01*
X175316666Y-103083333D01*
X175350000Y-103216666D01*
X175350000Y-103316666D01*
X175316666Y-103450000D01*
X175283333Y-103516666D01*
X175216666Y-103583333D01*
X175116666Y-103616666D01*
X174950000Y-103616666D01*
X175616666Y-103416666D02*
X175950000Y-103416666D01*
X175550000Y-103616666D02*
X175783333Y-102916666D01*
X176016666Y-103616666D01*
X176150000Y-102916666D02*
X176550000Y-102916666D01*
X176350000Y-103616666D02*
X176350000Y-102916666D01*
X176750000Y-103416666D02*
X177083333Y-103416666D01*
X176683333Y-103616666D02*
X176916666Y-102916666D01*
X177150000Y-103616666D01*
X175400000Y-102150000D02*
X175933333Y-102150000D01*
X175666666Y-102416666D02*
X175666666Y-101883333D01*
X176600000Y-101716666D02*
X176266666Y-101716666D01*
X176233333Y-102050000D01*
X176266666Y-102016666D01*
X176333333Y-101983333D01*
X176500000Y-101983333D01*
X176566666Y-102016666D01*
X176600000Y-102050000D01*
X176633333Y-102116666D01*
X176633333Y-102283333D01*
X176600000Y-102350000D01*
X176566666Y-102383333D01*
X176500000Y-102416666D01*
X176333333Y-102416666D01*
X176266666Y-102383333D01*
X176233333Y-102350000D01*
X176833333Y-101716666D02*
X177066666Y-102416666D01*
X177300000Y-101716666D01*
X211604761Y-54828571D02*
X211271428Y-54828571D01*
X211271428Y-55352380D02*
X211271428Y-54352380D01*
X211747619Y-54352380D01*
X212128571Y-54352380D02*
X212128571Y-55161904D01*
X212176190Y-55257142D01*
X212223809Y-55304761D01*
X212319047Y-55352380D01*
X212509523Y-55352380D01*
X212604761Y-55304761D01*
X212652380Y-55257142D01*
X212700000Y-55161904D01*
X212700000Y-54352380D01*
X213128571Y-55304761D02*
X213271428Y-55352380D01*
X213509523Y-55352380D01*
X213604761Y-55304761D01*
X213652380Y-55257142D01*
X213700000Y-55161904D01*
X213700000Y-55066666D01*
X213652380Y-54971428D01*
X213604761Y-54923809D01*
X213509523Y-54876190D01*
X213319047Y-54828571D01*
X213223809Y-54780952D01*
X213176190Y-54733333D01*
X213128571Y-54638095D01*
X213128571Y-54542857D01*
X213176190Y-54447619D01*
X213223809Y-54400000D01*
X213319047Y-54352380D01*
X213557142Y-54352380D01*
X213700000Y-54400000D01*
X214128571Y-54828571D02*
X214461904Y-54828571D01*
X214604761Y-55352380D02*
X214128571Y-55352380D01*
X214128571Y-54352380D01*
X214604761Y-54352380D01*
X216271428Y-54352380D02*
X215795238Y-54352380D01*
X215747619Y-54828571D01*
X215795238Y-54780952D01*
X215890476Y-54733333D01*
X216128571Y-54733333D01*
X216223809Y-54780952D01*
X216271428Y-54828571D01*
X216319047Y-54923809D01*
X216319047Y-55161904D01*
X216271428Y-55257142D01*
X216223809Y-55304761D01*
X216128571Y-55352380D01*
X215890476Y-55352380D01*
X215795238Y-55304761D01*
X215747619Y-55257142D01*
X216604761Y-54352380D02*
X216938095Y-55352380D01*
X217271428Y-54352380D01*
X186671428Y-106028571D02*
X186338095Y-106028571D01*
X186338095Y-106552380D02*
X186338095Y-105552380D01*
X186814285Y-105552380D01*
X187195238Y-105552380D02*
X187195238Y-106361904D01*
X187242857Y-106457142D01*
X187290476Y-106504761D01*
X187385714Y-106552380D01*
X187576190Y-106552380D01*
X187671428Y-106504761D01*
X187719047Y-106457142D01*
X187766666Y-106361904D01*
X187766666Y-105552380D01*
X188195238Y-106504761D02*
X188338095Y-106552380D01*
X188576190Y-106552380D01*
X188671428Y-106504761D01*
X188719047Y-106457142D01*
X188766666Y-106361904D01*
X188766666Y-106266666D01*
X188719047Y-106171428D01*
X188671428Y-106123809D01*
X188576190Y-106076190D01*
X188385714Y-106028571D01*
X188290476Y-105980952D01*
X188242857Y-105933333D01*
X188195238Y-105838095D01*
X188195238Y-105742857D01*
X188242857Y-105647619D01*
X188290476Y-105600000D01*
X188385714Y-105552380D01*
X188623809Y-105552380D01*
X188766666Y-105600000D01*
X189195238Y-106028571D02*
X189528571Y-106028571D01*
X189671428Y-106552380D02*
X189195238Y-106552380D01*
X189195238Y-105552380D01*
X189671428Y-105552380D01*
X191338095Y-105552380D02*
X190861904Y-105552380D01*
X190814285Y-106028571D01*
X190861904Y-105980952D01*
X190957142Y-105933333D01*
X191195238Y-105933333D01*
X191290476Y-105980952D01*
X191338095Y-106028571D01*
X191385714Y-106123809D01*
X191385714Y-106361904D01*
X191338095Y-106457142D01*
X191290476Y-106504761D01*
X191195238Y-106552380D01*
X190957142Y-106552380D01*
X190861904Y-106504761D01*
X190814285Y-106457142D01*
X191671428Y-105552380D02*
X192004761Y-106552380D01*
X192338095Y-105552380D01*
X193766666Y-106028571D02*
X193909523Y-106076190D01*
X193957142Y-106123809D01*
X194004761Y-106219047D01*
X194004761Y-106361904D01*
X193957142Y-106457142D01*
X193909523Y-106504761D01*
X193814285Y-106552380D01*
X193433333Y-106552380D01*
X193433333Y-105552380D01*
X193766666Y-105552380D01*
X193861904Y-105600000D01*
X193909523Y-105647619D01*
X193957142Y-105742857D01*
X193957142Y-105838095D01*
X193909523Y-105933333D01*
X193861904Y-105980952D01*
X193766666Y-106028571D01*
X193433333Y-106028571D01*
X194623809Y-105552380D02*
X194814285Y-105552380D01*
X194909523Y-105600000D01*
X195004761Y-105695238D01*
X195052380Y-105885714D01*
X195052380Y-106219047D01*
X195004761Y-106409523D01*
X194909523Y-106504761D01*
X194814285Y-106552380D01*
X194623809Y-106552380D01*
X194528571Y-106504761D01*
X194433333Y-106409523D01*
X194385714Y-106219047D01*
X194385714Y-105885714D01*
X194433333Y-105695238D01*
X194528571Y-105600000D01*
X194623809Y-105552380D01*
X195433333Y-106266666D02*
X195909523Y-106266666D01*
X195338095Y-106552380D02*
X195671428Y-105552380D01*
X196004761Y-106552380D01*
X196909523Y-106552380D02*
X196576190Y-106076190D01*
X196338095Y-106552380D02*
X196338095Y-105552380D01*
X196719047Y-105552380D01*
X196814285Y-105600000D01*
X196861904Y-105647619D01*
X196909523Y-105742857D01*
X196909523Y-105885714D01*
X196861904Y-105980952D01*
X196814285Y-106028571D01*
X196719047Y-106076190D01*
X196338095Y-106076190D01*
X197338095Y-106552380D02*
X197338095Y-105552380D01*
X197576190Y-105552380D01*
X197719047Y-105600000D01*
X197814285Y-105695238D01*
X197861904Y-105790476D01*
X197909523Y-105980952D01*
X197909523Y-106123809D01*
X197861904Y-106314285D01*
X197814285Y-106409523D01*
X197719047Y-106504761D01*
X197576190Y-106552380D01*
X197338095Y-106552380D01*
D11*
X209285714Y-34357142D02*
X209857142Y-34357142D01*
X209914285Y-33785714D01*
X209857142Y-33842857D01*
X209742857Y-33900000D01*
X209457142Y-33900000D01*
X209342857Y-33842857D01*
X209285714Y-33785714D01*
X209228571Y-33671428D01*
X209228571Y-33385714D01*
X209285714Y-33271428D01*
X209342857Y-33214285D01*
X209457142Y-33157142D01*
X209742857Y-33157142D01*
X209857142Y-33214285D01*
X209914285Y-33271428D01*
X208885714Y-34357142D02*
X208485714Y-33157142D01*
X208085714Y-34357142D01*
X206771428Y-33157142D02*
X206771428Y-34357142D01*
X206485714Y-34357142D01*
X206314285Y-34300000D01*
X206200000Y-34185714D01*
X206142857Y-34071428D01*
X206085714Y-33842857D01*
X206085714Y-33671428D01*
X206142857Y-33442857D01*
X206200000Y-33328571D01*
X206314285Y-33214285D01*
X206485714Y-33157142D01*
X206771428Y-33157142D01*
X204885714Y-33271428D02*
X204942857Y-33214285D01*
X205114285Y-33157142D01*
X205228571Y-33157142D01*
X205400000Y-33214285D01*
X205514285Y-33328571D01*
X205571428Y-33442857D01*
X205628571Y-33671428D01*
X205628571Y-33842857D01*
X205571428Y-34071428D01*
X205514285Y-34185714D01*
X205400000Y-34300000D01*
X205228571Y-34357142D01*
X205114285Y-34357142D01*
X204942857Y-34300000D01*
X204885714Y-34242857D01*
X199485714Y-34242857D02*
X199428571Y-34300000D01*
X199314285Y-34357142D01*
X199028571Y-34357142D01*
X198914285Y-34300000D01*
X198857142Y-34242857D01*
X198800000Y-34128571D01*
X198800000Y-34014285D01*
X198857142Y-33842857D01*
X199542857Y-33157142D01*
X198800000Y-33157142D01*
X197771428Y-33957142D02*
X197771428Y-33157142D01*
X198057142Y-34414285D02*
X198342857Y-33557142D01*
X197600000Y-33557142D01*
X197314285Y-34357142D02*
X196914285Y-33157142D01*
X196514285Y-34357142D01*
X195200000Y-33157142D02*
X195200000Y-34357142D01*
X194914285Y-34357142D01*
X194742857Y-34300000D01*
X194628571Y-34185714D01*
X194571428Y-34071428D01*
X194514285Y-33842857D01*
X194514285Y-33671428D01*
X194571428Y-33442857D01*
X194628571Y-33328571D01*
X194742857Y-33214285D01*
X194914285Y-33157142D01*
X195200000Y-33157142D01*
X193314285Y-33271428D02*
X193371428Y-33214285D01*
X193542857Y-33157142D01*
X193657142Y-33157142D01*
X193828571Y-33214285D01*
X193942857Y-33328571D01*
X194000000Y-33442857D01*
X194057142Y-33671428D01*
X194057142Y-33842857D01*
X194000000Y-34071428D01*
X193942857Y-34185714D01*
X193828571Y-34300000D01*
X193657142Y-34357142D01*
X193542857Y-34357142D01*
X193371428Y-34300000D01*
X193314285Y-34242857D01*
D13*
X177610000Y-124370000D02*
X178940000Y-124370000D01*
X177610000Y-125700000D02*
X177610000Y-124370000D01*
X177610000Y-126970000D02*
X180270000Y-126970000D01*
X180270000Y-126970000D02*
X180270000Y-129570000D01*
X177610000Y-126970000D02*
X177610000Y-129570000D01*
X177610000Y-129570000D02*
X180270000Y-129570000D01*
X182690000Y-129570000D02*
X185350000Y-129570000D01*
X182690000Y-126970000D02*
X182690000Y-129570000D01*
X185350000Y-126970000D02*
X185350000Y-129570000D01*
X182690000Y-126970000D02*
X185350000Y-126970000D01*
X182690000Y-125700000D02*
X182690000Y-124370000D01*
X182690000Y-124370000D02*
X184020000Y-124370000D01*
X175070000Y-129570000D02*
X177730000Y-129570000D01*
X175070000Y-126970000D02*
X175070000Y-129570000D01*
X177730000Y-126970000D02*
X177730000Y-129570000D01*
X175070000Y-126970000D02*
X177730000Y-126970000D01*
X175070000Y-125700000D02*
X175070000Y-124370000D01*
X175070000Y-124370000D02*
X176400000Y-124370000D01*
X185230000Y-124370000D02*
X186560000Y-124370000D01*
X185230000Y-125700000D02*
X185230000Y-124370000D01*
X185230000Y-126970000D02*
X187890000Y-126970000D01*
X187890000Y-126970000D02*
X187890000Y-129570000D01*
X185230000Y-126970000D02*
X185230000Y-129570000D01*
X185230000Y-129570000D02*
X187890000Y-129570000D01*
X180150000Y-129570000D02*
X182810000Y-129570000D01*
X180150000Y-126970000D02*
X180150000Y-129570000D01*
X182810000Y-126970000D02*
X182810000Y-129570000D01*
X180150000Y-126970000D02*
X182810000Y-126970000D01*
X180150000Y-125700000D02*
X180150000Y-124370000D01*
X180150000Y-124370000D02*
X181480000Y-124370000D01*
X216860000Y-103370000D02*
X215210000Y-103370000D01*
X216860000Y-126350000D02*
X216860000Y-103370000D01*
X211560000Y-126350000D02*
X216860000Y-126350000D01*
X211560000Y-103370000D02*
X211560000Y-126350000D01*
X213210000Y-103370000D02*
X211560000Y-103370000D01*
X215210000Y-103370000D02*
G75*
G02X213210000Y-103370000I-1000000J0D01*
G01*
X254718000Y-118746000D02*
X254210000Y-119000000D01*
X254718000Y-119254000D02*
X254718000Y-118746000D01*
X254210000Y-119000000D02*
X254718000Y-119254000D01*
X244690000Y-130740000D02*
X244690000Y-33600000D01*
X244690000Y-130740000D02*
X253570000Y-130740000D01*
X253570000Y-33600000D02*
X244690000Y-33600000D01*
X253570000Y-33600000D02*
X253570000Y-130740000D01*
X183260000Y-96610000D02*
X182930000Y-96610000D01*
X182930000Y-96610000D02*
X182930000Y-91170000D01*
X182930000Y-91170000D02*
X183260000Y-91170000D01*
X185540000Y-96610000D02*
X185870000Y-96610000D01*
X185870000Y-96610000D02*
X185870000Y-91170000D01*
X185870000Y-91170000D02*
X185540000Y-91170000D01*
X182930000Y-95710000D02*
X185870000Y-95710000D01*
X182930000Y-95590000D02*
X185870000Y-95590000D01*
X182930000Y-95830000D02*
X185870000Y-95830000D01*
X231740000Y-35620000D02*
X227900000Y-35620000D01*
X231740000Y-33780000D02*
X227900000Y-33780000D01*
X231740000Y-36320000D02*
X227900000Y-36320000D01*
X231740000Y-38160000D02*
X227900000Y-38160000D01*
X231740000Y-40700000D02*
X227900000Y-40700000D01*
X231740000Y-38860000D02*
X227900000Y-38860000D01*
X231740000Y-41400000D02*
X227900000Y-41400000D01*
X231740000Y-43240000D02*
X227900000Y-43240000D01*
X231740000Y-43940000D02*
X227900000Y-43940000D01*
X231740000Y-45780000D02*
X227900000Y-45780000D01*
X231740000Y-48320000D02*
X227900000Y-48320000D01*
X231740000Y-46480000D02*
X227900000Y-46480000D01*
X231740000Y-49020000D02*
X227900000Y-49020000D01*
X231740000Y-50860000D02*
X227900000Y-50860000D01*
X231740000Y-53400000D02*
X227900000Y-53400000D01*
X231740000Y-51560000D02*
X227900000Y-51560000D01*
X204090000Y-77870000D02*
G75*
G02X202090000Y-77870000I-1000000J0D01*
G01*
X202090000Y-77870000D02*
X200440000Y-77870000D01*
X200440000Y-77870000D02*
X200440000Y-103390000D01*
X200440000Y-103390000D02*
X205740000Y-103390000D01*
X205740000Y-103390000D02*
X205740000Y-77870000D01*
X205740000Y-77870000D02*
X204090000Y-77870000D01*
X241360000Y-58370000D02*
X239710000Y-58370000D01*
X241360000Y-81350000D02*
X241360000Y-58370000D01*
X236060000Y-81350000D02*
X241360000Y-81350000D01*
X236060000Y-58370000D02*
X236060000Y-81350000D01*
X237710000Y-58370000D02*
X236060000Y-58370000D01*
X239710000Y-58370000D02*
G75*
G02X237710000Y-58370000I-1000000J0D01*
G01*
X227090000Y-76270000D02*
G75*
G02X229090000Y-76270000I1000000J0D01*
G01*
X229090000Y-76270000D02*
X230740000Y-76270000D01*
X230740000Y-76270000D02*
X230740000Y-55830000D01*
X230740000Y-55830000D02*
X225440000Y-55830000D01*
X225440000Y-55830000D02*
X225440000Y-76270000D01*
X225440000Y-76270000D02*
X227090000Y-76270000D01*
X228210000Y-78370000D02*
G75*
G02X226210000Y-78370000I-1000000J0D01*
G01*
X226210000Y-78370000D02*
X224560000Y-78370000D01*
X224560000Y-78370000D02*
X224560000Y-101350000D01*
X224560000Y-101350000D02*
X229860000Y-101350000D01*
X229860000Y-101350000D02*
X229860000Y-78370000D01*
X229860000Y-78370000D02*
X228210000Y-78370000D01*
X213440000Y-100530000D02*
X215090000Y-100530000D01*
X213440000Y-80090000D02*
X213440000Y-100530000D01*
X218740000Y-80090000D02*
X213440000Y-80090000D01*
X218740000Y-100530000D02*
X218740000Y-80090000D01*
X217090000Y-100530000D02*
X218740000Y-100530000D01*
X215090000Y-100530000D02*
G75*
G02X217090000Y-100530000I1000000J0D01*
G01*
X219590000Y-53810000D02*
G75*
G02X221590000Y-53810000I1000000J0D01*
G01*
X221590000Y-53810000D02*
X223240000Y-53810000D01*
X223240000Y-53810000D02*
X223240000Y-33370000D01*
X223240000Y-33370000D02*
X217940000Y-33370000D01*
X217940000Y-33370000D02*
X217940000Y-53810000D01*
X217940000Y-53810000D02*
X219590000Y-53810000D01*
X216860000Y-55870000D02*
X215210000Y-55870000D01*
X216860000Y-78850000D02*
X216860000Y-55870000D01*
X211560000Y-78850000D02*
X216860000Y-78850000D01*
X211560000Y-55870000D02*
X211560000Y-78850000D01*
X213210000Y-55870000D02*
X211560000Y-55870000D01*
X215210000Y-55870000D02*
G75*
G02X213210000Y-55870000I-1000000J0D01*
G01*
X239710000Y-33370000D02*
G75*
G02X237710000Y-33370000I-1000000J0D01*
G01*
X237710000Y-33370000D02*
X236060000Y-33370000D01*
X236060000Y-33370000D02*
X236060000Y-56350000D01*
X236060000Y-56350000D02*
X241360000Y-56350000D01*
X241360000Y-56350000D02*
X241360000Y-33370000D01*
X241360000Y-33370000D02*
X239710000Y-33370000D01*
X200440000Y-76310000D02*
X202090000Y-76310000D01*
X200440000Y-55870000D02*
X200440000Y-76310000D01*
X205740000Y-55870000D02*
X200440000Y-55870000D01*
X205740000Y-76310000D02*
X205740000Y-55870000D01*
X204090000Y-76310000D02*
X205740000Y-76310000D01*
X202090000Y-76310000D02*
G75*
G02X204090000Y-76310000I1000000J0D01*
G01*
X239590000Y-108370000D02*
G75*
G02X237590000Y-108370000I-1000000J0D01*
G01*
X237590000Y-108370000D02*
X235940000Y-108370000D01*
X235940000Y-108370000D02*
X235940000Y-131350000D01*
X235940000Y-131350000D02*
X241240000Y-131350000D01*
X241240000Y-131350000D02*
X241240000Y-108370000D01*
X241240000Y-108370000D02*
X239590000Y-108370000D01*
X226590000Y-131310000D02*
G75*
G02X228590000Y-131310000I1000000J0D01*
G01*
X228590000Y-131310000D02*
X230240000Y-131310000D01*
X230240000Y-131310000D02*
X230240000Y-110870000D01*
X230240000Y-110870000D02*
X224940000Y-110870000D01*
X224940000Y-110870000D02*
X224940000Y-131310000D01*
X224940000Y-131310000D02*
X226590000Y-131310000D01*
X200440000Y-125310000D02*
X202090000Y-125310000D01*
X200440000Y-104870000D02*
X200440000Y-125310000D01*
X205740000Y-104870000D02*
X200440000Y-104870000D01*
X205740000Y-125310000D02*
X205740000Y-104870000D01*
X204090000Y-125310000D02*
X205740000Y-125310000D01*
X202090000Y-125310000D02*
G75*
G02X204090000Y-125310000I1000000J0D01*
G01*
X190060000Y-101520000D02*
X187230000Y-101520000D01*
X187230000Y-101520000D02*
X187230000Y-92180000D01*
X187230000Y-92180000D02*
X190060000Y-92180000D01*
X193740000Y-101520000D02*
X196570000Y-101520000D01*
X196570000Y-101520000D02*
X196570000Y-92180000D01*
X196570000Y-92180000D02*
X193740000Y-92180000D01*
X187230000Y-100035000D02*
X196570000Y-100035000D01*
X187230000Y-99915000D02*
X196570000Y-99915000D01*
X187230000Y-100155000D02*
X196570000Y-100155000D01*
X189220277Y-118144278D02*
G75*
G03X189220000Y-122755580I1179723J-2305722D01*
G01*
X191579723Y-118144278D02*
G75*
G02X191580000Y-122755580I-1179723J-2305722D01*
G01*
X191579723Y-118144278D02*
G75*
G03X189220000Y-118144420I-1179723J-2305722D01*
G01*
X187850000Y-120450000D02*
X192950000Y-120450000D01*
X187850000Y-120410000D02*
X192950000Y-120410000D01*
X187851000Y-120370000D02*
X192949000Y-120370000D01*
X187852000Y-120330000D02*
X192948000Y-120330000D01*
X187854000Y-120290000D02*
X192946000Y-120290000D01*
X187857000Y-120250000D02*
X192943000Y-120250000D01*
X187861000Y-120210000D02*
X192939000Y-120210000D01*
X187865000Y-120170000D02*
X189420000Y-120170000D01*
X191380000Y-120170000D02*
X192935000Y-120170000D01*
X187869000Y-120130000D02*
X189420000Y-120130000D01*
X191380000Y-120130000D02*
X192931000Y-120130000D01*
X187875000Y-120090000D02*
X189420000Y-120090000D01*
X191380000Y-120090000D02*
X192925000Y-120090000D01*
X187881000Y-120050000D02*
X189420000Y-120050000D01*
X191380000Y-120050000D02*
X192919000Y-120050000D01*
X187887000Y-120010000D02*
X189420000Y-120010000D01*
X191380000Y-120010000D02*
X192913000Y-120010000D01*
X187894000Y-119970000D02*
X189420000Y-119970000D01*
X191380000Y-119970000D02*
X192906000Y-119970000D01*
X187902000Y-119930000D02*
X189420000Y-119930000D01*
X191380000Y-119930000D02*
X192898000Y-119930000D01*
X187911000Y-119890000D02*
X189420000Y-119890000D01*
X191380000Y-119890000D02*
X192889000Y-119890000D01*
X187920000Y-119850000D02*
X189420000Y-119850000D01*
X191380000Y-119850000D02*
X192880000Y-119850000D01*
X187930000Y-119810000D02*
X189420000Y-119810000D01*
X191380000Y-119810000D02*
X192870000Y-119810000D01*
X187940000Y-119770000D02*
X189420000Y-119770000D01*
X191380000Y-119770000D02*
X192860000Y-119770000D01*
X187952000Y-119729000D02*
X189420000Y-119729000D01*
X191380000Y-119729000D02*
X192848000Y-119729000D01*
X187964000Y-119689000D02*
X189420000Y-119689000D01*
X191380000Y-119689000D02*
X192836000Y-119689000D01*
X187976000Y-119649000D02*
X189420000Y-119649000D01*
X191380000Y-119649000D02*
X192824000Y-119649000D01*
X187990000Y-119609000D02*
X189420000Y-119609000D01*
X191380000Y-119609000D02*
X192810000Y-119609000D01*
X188004000Y-119569000D02*
X189420000Y-119569000D01*
X191380000Y-119569000D02*
X192796000Y-119569000D01*
X188018000Y-119529000D02*
X189420000Y-119529000D01*
X191380000Y-119529000D02*
X192782000Y-119529000D01*
X188034000Y-119489000D02*
X189420000Y-119489000D01*
X191380000Y-119489000D02*
X192766000Y-119489000D01*
X188050000Y-119449000D02*
X189420000Y-119449000D01*
X191380000Y-119449000D02*
X192750000Y-119449000D01*
X188067000Y-119409000D02*
X189420000Y-119409000D01*
X191380000Y-119409000D02*
X192733000Y-119409000D01*
X188085000Y-119369000D02*
X189420000Y-119369000D01*
X191380000Y-119369000D02*
X192715000Y-119369000D01*
X188104000Y-119329000D02*
X189420000Y-119329000D01*
X191380000Y-119329000D02*
X192696000Y-119329000D01*
X188124000Y-119289000D02*
X189420000Y-119289000D01*
X191380000Y-119289000D02*
X192676000Y-119289000D01*
X188144000Y-119249000D02*
X189420000Y-119249000D01*
X191380000Y-119249000D02*
X192656000Y-119249000D01*
X188166000Y-119209000D02*
X189420000Y-119209000D01*
X191380000Y-119209000D02*
X192634000Y-119209000D01*
X188188000Y-119169000D02*
X189420000Y-119169000D01*
X191380000Y-119169000D02*
X192612000Y-119169000D01*
X188211000Y-119129000D02*
X189420000Y-119129000D01*
X191380000Y-119129000D02*
X192589000Y-119129000D01*
X188235000Y-119089000D02*
X189420000Y-119089000D01*
X191380000Y-119089000D02*
X192565000Y-119089000D01*
X188260000Y-119049000D02*
X189420000Y-119049000D01*
X191380000Y-119049000D02*
X192540000Y-119049000D01*
X188287000Y-119009000D02*
X189420000Y-119009000D01*
X191380000Y-119009000D02*
X192513000Y-119009000D01*
X188314000Y-118969000D02*
X189420000Y-118969000D01*
X191380000Y-118969000D02*
X192486000Y-118969000D01*
X188342000Y-118929000D02*
X189420000Y-118929000D01*
X191380000Y-118929000D02*
X192458000Y-118929000D01*
X188372000Y-118889000D02*
X189420000Y-118889000D01*
X191380000Y-118889000D02*
X192428000Y-118889000D01*
X188403000Y-118849000D02*
X189420000Y-118849000D01*
X191380000Y-118849000D02*
X192397000Y-118849000D01*
X188435000Y-118809000D02*
X189420000Y-118809000D01*
X191380000Y-118809000D02*
X192365000Y-118809000D01*
X188468000Y-118769000D02*
X189420000Y-118769000D01*
X191380000Y-118769000D02*
X192332000Y-118769000D01*
X188503000Y-118729000D02*
X189420000Y-118729000D01*
X191380000Y-118729000D02*
X192297000Y-118729000D01*
X188539000Y-118689000D02*
X189420000Y-118689000D01*
X191380000Y-118689000D02*
X192261000Y-118689000D01*
X188577000Y-118649000D02*
X189420000Y-118649000D01*
X191380000Y-118649000D02*
X192223000Y-118649000D01*
X188617000Y-118609000D02*
X189420000Y-118609000D01*
X191380000Y-118609000D02*
X192183000Y-118609000D01*
X188658000Y-118569000D02*
X189420000Y-118569000D01*
X191380000Y-118569000D02*
X192142000Y-118569000D01*
X188701000Y-118529000D02*
X189420000Y-118529000D01*
X191380000Y-118529000D02*
X192099000Y-118529000D01*
X188746000Y-118489000D02*
X189420000Y-118489000D01*
X191380000Y-118489000D02*
X192054000Y-118489000D01*
X188794000Y-118449000D02*
X189420000Y-118449000D01*
X191380000Y-118449000D02*
X192006000Y-118449000D01*
X188844000Y-118409000D02*
X189420000Y-118409000D01*
X191380000Y-118409000D02*
X191956000Y-118409000D01*
X188896000Y-118369000D02*
X189420000Y-118369000D01*
X191380000Y-118369000D02*
X191904000Y-118369000D01*
X188952000Y-118329000D02*
X189420000Y-118329000D01*
X191380000Y-118329000D02*
X191848000Y-118329000D01*
X189010000Y-118289000D02*
X189420000Y-118289000D01*
X191380000Y-118289000D02*
X191790000Y-118289000D01*
X189073000Y-118249000D02*
X189420000Y-118249000D01*
X191380000Y-118249000D02*
X191727000Y-118249000D01*
X189139000Y-118209000D02*
X191661000Y-118209000D01*
X189211000Y-118169000D02*
X191589000Y-118169000D01*
X189288000Y-118129000D02*
X191512000Y-118129000D01*
X189372000Y-118089000D02*
X191428000Y-118089000D01*
X189466000Y-118049000D02*
X191334000Y-118049000D01*
X189571000Y-118009000D02*
X191229000Y-118009000D01*
X189693000Y-117969000D02*
X191107000Y-117969000D01*
X189841000Y-117929000D02*
X190959000Y-117929000D01*
X190046000Y-117889000D02*
X190754000Y-117889000D01*
X190400000Y-123900000D02*
X190400000Y-122700000D01*
X189750000Y-123300000D02*
X191050000Y-123300000D01*
X202290000Y-52490000D02*
X202410000Y-52630000D01*
X202410000Y-52630000D02*
X202500000Y-52790000D01*
X202500000Y-52790000D02*
X202550000Y-53040000D01*
X202550000Y-53040000D02*
X202520000Y-53300000D01*
X202520000Y-53300000D02*
X202370000Y-53560000D01*
X202370000Y-53560000D02*
X202150000Y-53730000D01*
X202150000Y-53730000D02*
X201860000Y-53810000D01*
X201860000Y-53810000D02*
X201570000Y-53770000D01*
X201570000Y-53770000D02*
X201390000Y-53690000D01*
X201390000Y-53690000D02*
X201260000Y-53540000D01*
X203190000Y-49710000D02*
G75*
G03X203190000Y-49710000I-4750000J0D01*
G01*
X197110000Y-111690000D02*
G75*
G03X197110000Y-111690000I-4750000J0D01*
G01*
X189410000Y-107710000D02*
X189540000Y-107860000D01*
X189230000Y-107630000D02*
X189410000Y-107710000D01*
X188940000Y-107590000D02*
X189230000Y-107630000D01*
X188650000Y-107670000D02*
X188940000Y-107590000D01*
X188430000Y-107840000D02*
X188650000Y-107670000D01*
X188280000Y-108100000D02*
X188430000Y-107840000D01*
X188250000Y-108360000D02*
X188280000Y-108100000D01*
X188300000Y-108610000D02*
X188250000Y-108360000D01*
X188390000Y-108770000D02*
X188300000Y-108610000D01*
X188510000Y-108910000D02*
X188390000Y-108770000D01*
X212790000Y-52490000D02*
X212910000Y-52630000D01*
X212910000Y-52630000D02*
X213000000Y-52790000D01*
X213000000Y-52790000D02*
X213050000Y-53040000D01*
X213050000Y-53040000D02*
X213020000Y-53300000D01*
X213020000Y-53300000D02*
X212870000Y-53560000D01*
X212870000Y-53560000D02*
X212650000Y-53730000D01*
X212650000Y-53730000D02*
X212360000Y-53810000D01*
X212360000Y-53810000D02*
X212070000Y-53770000D01*
X212070000Y-53770000D02*
X211890000Y-53690000D01*
X211890000Y-53690000D02*
X211760000Y-53540000D01*
X213690000Y-49710000D02*
G75*
G03X213690000Y-49710000I-4750000J0D01*
G01*
X174620000Y-88630000D02*
X174620000Y-100690000D01*
X174620000Y-100690000D02*
X171180000Y-100690000D01*
X171180000Y-100690000D02*
X171180000Y-99640000D01*
X171180000Y-99640000D02*
X164980000Y-99640000D01*
X164980000Y-99640000D02*
X164980000Y-89680000D01*
X164980000Y-89680000D02*
X171180000Y-89680000D01*
X171180000Y-89680000D02*
X171180000Y-88630000D01*
X171180000Y-88630000D02*
X174620000Y-88630000D01*
X164980000Y-89880000D02*
X163880000Y-89880000D01*
X163880000Y-89880000D02*
X163880000Y-91520000D01*
X163880000Y-91520000D02*
X164980000Y-91520000D01*
X164980000Y-93840000D02*
X163880000Y-93840000D01*
X163880000Y-93840000D02*
X163880000Y-95480000D01*
X163880000Y-95480000D02*
X164980000Y-95480000D01*
X164980000Y-97800000D02*
X163880000Y-97800000D01*
X163880000Y-97800000D02*
X163880000Y-99440000D01*
X163880000Y-99440000D02*
X164980000Y-99440000D01*
X180750000Y-90700000D02*
X180750000Y-89150000D01*
X180750000Y-89150000D02*
X178900000Y-89150000D01*
X180330000Y-118120000D02*
X180330000Y-107880000D01*
X164440000Y-118120000D02*
X164440000Y-107880000D01*
X164440000Y-118120000D02*
X180330000Y-118120000D01*
X164440000Y-107880000D02*
X180330000Y-107880000D01*
X180330000Y-115540000D02*
X182970000Y-115540000D01*
X180330000Y-113000000D02*
X182954000Y-113000000D01*
X180330000Y-110460000D02*
X182954000Y-110460000D01*
X194590000Y-123010000D02*
X194590000Y-117890000D01*
X197210000Y-123010000D02*
X197210000Y-117890000D01*
X194590000Y-123010000D02*
X197210000Y-123010000D01*
X194590000Y-117890000D02*
X197210000Y-117890000D01*
X180820000Y-77580000D02*
X180820000Y-73740000D01*
X178980000Y-77580000D02*
X178980000Y-73740000D01*
X181980000Y-80080000D02*
X181980000Y-76240000D01*
X183820000Y-80080000D02*
X183820000Y-76240000D01*
X204600000Y-43500000D02*
X206600000Y-43500000D01*
X204600000Y-41260000D02*
X204600000Y-43500000D01*
X211220000Y-40176000D02*
X211126000Y-40269000D01*
X213470000Y-37925000D02*
X213411000Y-37984000D01*
X211390000Y-40416000D02*
X211331000Y-40474000D01*
X213675000Y-38131000D02*
X213581000Y-38224000D01*
X214960000Y-35140000D02*
X204840000Y-35140000D01*
X214960000Y-43260000D02*
X214960000Y-35140000D01*
X204840000Y-43260000D02*
X214960000Y-43260000D01*
X204840000Y-35140000D02*
X204840000Y-43260000D01*
X204840000Y-37200000D02*
X214960000Y-37200000D01*
X204840000Y-41200000D02*
X214960000Y-41200000D01*
X214080000Y-39200000D02*
G75*
G03X214080000Y-39200000I-1680000J0D01*
G01*
X207429383Y-40880450D02*
G75*
G02X206611000Y-40684000I-29383J1680450D01*
G01*
X205916047Y-39989088D02*
G75*
G02X205916000Y-38411000I1483953J789088D01*
G01*
X206610912Y-37716047D02*
G75*
G02X208189000Y-37716000I789088J-1483953D01*
G01*
X208883953Y-38410912D02*
G75*
G02X208884000Y-39989000I-1483953J-789088D01*
G01*
X208188712Y-40683352D02*
G75*
G02X207400000Y-40880000I-788712J1483352D01*
G01*
X196688712Y-40683352D02*
G75*
G02X195900000Y-40880000I-788712J1483352D01*
G01*
X197383953Y-38410912D02*
G75*
G02X197384000Y-39989000I-1483953J-789088D01*
G01*
X195110912Y-37716047D02*
G75*
G02X196689000Y-37716000I789088J-1483953D01*
G01*
X194416047Y-39989088D02*
G75*
G02X194416000Y-38411000I1483953J789088D01*
G01*
X195929383Y-40880450D02*
G75*
G02X195111000Y-40684000I-29383J1680450D01*
G01*
X202580000Y-39200000D02*
G75*
G03X202580000Y-39200000I-1680000J0D01*
G01*
X193340000Y-41200000D02*
X203460000Y-41200000D01*
X193340000Y-37200000D02*
X203460000Y-37200000D01*
X193340000Y-35140000D02*
X193340000Y-43260000D01*
X193340000Y-43260000D02*
X203460000Y-43260000D01*
X203460000Y-43260000D02*
X203460000Y-35140000D01*
X203460000Y-35140000D02*
X193340000Y-35140000D01*
X202175000Y-38131000D02*
X202081000Y-38224000D01*
X199890000Y-40416000D02*
X199831000Y-40474000D01*
X201970000Y-37925000D02*
X201911000Y-37984000D01*
X199720000Y-40176000D02*
X199626000Y-40269000D01*
X193100000Y-41260000D02*
X193100000Y-43500000D01*
X193100000Y-43500000D02*
X195100000Y-43500000D01*
D10*
X177668095Y-68552380D02*
X177668095Y-69361904D01*
X177715714Y-69457142D01*
X177763333Y-69504761D01*
X177858571Y-69552380D01*
X178049047Y-69552380D01*
X178144285Y-69504761D01*
X178191904Y-69457142D01*
X178239523Y-69361904D01*
X178239523Y-68552380D01*
X179239523Y-69552380D02*
X178668095Y-69552380D01*
X178953809Y-69552380D02*
X178953809Y-68552380D01*
X178858571Y-68695238D01*
X178763333Y-68790476D01*
X178668095Y-68838095D01*
D12*
X178666190Y-123616666D02*
X179023333Y-123616666D01*
X179094761Y-123640476D01*
X179142380Y-123688095D01*
X179166190Y-123759523D01*
X179166190Y-123807142D01*
X179166190Y-123378571D02*
X178666190Y-123378571D01*
X178666190Y-123188095D01*
X178690000Y-123140476D01*
X178713809Y-123116666D01*
X178761428Y-123092857D01*
X178832857Y-123092857D01*
X178880476Y-123116666D01*
X178904285Y-123140476D01*
X178928095Y-123188095D01*
X178928095Y-123378571D01*
X179166190Y-122616666D02*
X179166190Y-122902380D01*
X179166190Y-122759523D02*
X178666190Y-122759523D01*
X178737619Y-122807142D01*
X178785238Y-122854761D01*
X178809047Y-122902380D01*
X183746190Y-123616666D02*
X184103333Y-123616666D01*
X184174761Y-123640476D01*
X184222380Y-123688095D01*
X184246190Y-123759523D01*
X184246190Y-123807142D01*
X184246190Y-123378571D02*
X183746190Y-123378571D01*
X183746190Y-123188095D01*
X183770000Y-123140476D01*
X183793809Y-123116666D01*
X183841428Y-123092857D01*
X183912857Y-123092857D01*
X183960476Y-123116666D01*
X183984285Y-123140476D01*
X184008095Y-123188095D01*
X184008095Y-123378571D01*
X183793809Y-122902380D02*
X183770000Y-122878571D01*
X183746190Y-122830952D01*
X183746190Y-122711904D01*
X183770000Y-122664285D01*
X183793809Y-122640476D01*
X183841428Y-122616666D01*
X183889047Y-122616666D01*
X183960476Y-122640476D01*
X184246190Y-122926190D01*
X184246190Y-122616666D01*
X176126190Y-123616666D02*
X176483333Y-123616666D01*
X176554761Y-123640476D01*
X176602380Y-123688095D01*
X176626190Y-123759523D01*
X176626190Y-123807142D01*
X176626190Y-123378571D02*
X176126190Y-123378571D01*
X176126190Y-123188095D01*
X176150000Y-123140476D01*
X176173809Y-123116666D01*
X176221428Y-123092857D01*
X176292857Y-123092857D01*
X176340476Y-123116666D01*
X176364285Y-123140476D01*
X176388095Y-123188095D01*
X176388095Y-123378571D01*
X176126190Y-122926190D02*
X176126190Y-122616666D01*
X176316666Y-122783333D01*
X176316666Y-122711904D01*
X176340476Y-122664285D01*
X176364285Y-122640476D01*
X176411904Y-122616666D01*
X176530952Y-122616666D01*
X176578571Y-122640476D01*
X176602380Y-122664285D01*
X176626190Y-122711904D01*
X176626190Y-122854761D01*
X176602380Y-122902380D01*
X176578571Y-122926190D01*
X188126190Y-126116666D02*
X188483333Y-126116666D01*
X188554761Y-126140476D01*
X188602380Y-126188095D01*
X188626190Y-126259523D01*
X188626190Y-126307142D01*
X188626190Y-125878571D02*
X188126190Y-125878571D01*
X188126190Y-125688095D01*
X188150000Y-125640476D01*
X188173809Y-125616666D01*
X188221428Y-125592857D01*
X188292857Y-125592857D01*
X188340476Y-125616666D01*
X188364285Y-125640476D01*
X188388095Y-125688095D01*
X188388095Y-125878571D01*
X188292857Y-125164285D02*
X188626190Y-125164285D01*
X188102380Y-125283333D02*
X188459523Y-125402380D01*
X188459523Y-125092857D01*
X181206190Y-123616666D02*
X181563333Y-123616666D01*
X181634761Y-123640476D01*
X181682380Y-123688095D01*
X181706190Y-123759523D01*
X181706190Y-123807142D01*
X181706190Y-123378571D02*
X181206190Y-123378571D01*
X181206190Y-123188095D01*
X181230000Y-123140476D01*
X181253809Y-123116666D01*
X181301428Y-123092857D01*
X181372857Y-123092857D01*
X181420476Y-123116666D01*
X181444285Y-123140476D01*
X181468095Y-123188095D01*
X181468095Y-123378571D01*
X181206190Y-122640476D02*
X181206190Y-122878571D01*
X181444285Y-122902380D01*
X181420476Y-122878571D01*
X181396666Y-122830952D01*
X181396666Y-122711904D01*
X181420476Y-122664285D01*
X181444285Y-122640476D01*
X181491904Y-122616666D01*
X181610952Y-122616666D01*
X181658571Y-122640476D01*
X181682380Y-122664285D01*
X181706190Y-122711904D01*
X181706190Y-122830952D01*
X181682380Y-122878571D01*
X181658571Y-122902380D01*
D10*
X215361904Y-101852380D02*
X215361904Y-102661904D01*
X215409523Y-102757142D01*
X215457142Y-102804761D01*
X215552380Y-102852380D01*
X215742857Y-102852380D01*
X215838095Y-102804761D01*
X215885714Y-102757142D01*
X215933333Y-102661904D01*
X215933333Y-101852380D01*
X216933333Y-102852380D02*
X216361904Y-102852380D01*
X216647619Y-102852380D02*
X216647619Y-101852380D01*
X216552380Y-101995238D01*
X216457142Y-102090476D01*
X216361904Y-102138095D01*
X217838095Y-101852380D02*
X217361904Y-101852380D01*
X217314285Y-102328571D01*
X217361904Y-102280952D01*
X217457142Y-102233333D01*
X217695238Y-102233333D01*
X217790476Y-102280952D01*
X217838095Y-102328571D01*
X217885714Y-102423809D01*
X217885714Y-102661904D01*
X217838095Y-102757142D01*
X217790476Y-102804761D01*
X217695238Y-102852380D01*
X217457142Y-102852380D01*
X217361904Y-102804761D01*
X217314285Y-102757142D01*
X243266666Y-89452380D02*
X243266666Y-90166666D01*
X243219047Y-90309523D01*
X243123809Y-90404761D01*
X242980952Y-90452380D01*
X242885714Y-90452380D01*
X244266666Y-90452380D02*
X243695238Y-90452380D01*
X243980952Y-90452380D02*
X243980952Y-89452380D01*
X243885714Y-89595238D01*
X243790476Y-89690476D01*
X243695238Y-89738095D01*
X183661904Y-94352380D02*
X183661904Y-93352380D01*
X183900000Y-93352380D01*
X184042857Y-93400000D01*
X184138095Y-93495238D01*
X184185714Y-93590476D01*
X184233333Y-93780952D01*
X184233333Y-93923809D01*
X184185714Y-94114285D01*
X184138095Y-94209523D01*
X184042857Y-94304761D01*
X183900000Y-94352380D01*
X183661904Y-94352380D01*
X185185714Y-94352380D02*
X184614285Y-94352380D01*
X184900000Y-94352380D02*
X184900000Y-93352380D01*
X184804761Y-93495238D01*
X184709523Y-93590476D01*
X184614285Y-93638095D01*
X185838095Y-98252380D02*
X185838095Y-97252380D01*
X186409523Y-98252380D02*
X185980952Y-97680952D01*
X186409523Y-97252380D02*
X185838095Y-97823809D01*
X229733333Y-35152380D02*
X229400000Y-34676190D01*
X229161904Y-35152380D02*
X229161904Y-34152380D01*
X229542857Y-34152380D01*
X229638095Y-34200000D01*
X229685714Y-34247619D01*
X229733333Y-34342857D01*
X229733333Y-34485714D01*
X229685714Y-34580952D01*
X229638095Y-34628571D01*
X229542857Y-34676190D01*
X229161904Y-34676190D01*
X230685714Y-35152380D02*
X230114285Y-35152380D01*
X230400000Y-35152380D02*
X230400000Y-34152380D01*
X230304761Y-34295238D01*
X230209523Y-34390476D01*
X230114285Y-34438095D01*
X229733333Y-37752380D02*
X229400000Y-37276190D01*
X229161904Y-37752380D02*
X229161904Y-36752380D01*
X229542857Y-36752380D01*
X229638095Y-36800000D01*
X229685714Y-36847619D01*
X229733333Y-36942857D01*
X229733333Y-37085714D01*
X229685714Y-37180952D01*
X229638095Y-37228571D01*
X229542857Y-37276190D01*
X229161904Y-37276190D01*
X230114285Y-36847619D02*
X230161904Y-36800000D01*
X230257142Y-36752380D01*
X230495238Y-36752380D01*
X230590476Y-36800000D01*
X230638095Y-36847619D01*
X230685714Y-36942857D01*
X230685714Y-37038095D01*
X230638095Y-37180952D01*
X230066666Y-37752380D01*
X230685714Y-37752380D01*
X229733333Y-40252380D02*
X229400000Y-39776190D01*
X229161904Y-40252380D02*
X229161904Y-39252380D01*
X229542857Y-39252380D01*
X229638095Y-39300000D01*
X229685714Y-39347619D01*
X229733333Y-39442857D01*
X229733333Y-39585714D01*
X229685714Y-39680952D01*
X229638095Y-39728571D01*
X229542857Y-39776190D01*
X229161904Y-39776190D01*
X230066666Y-39252380D02*
X230685714Y-39252380D01*
X230352380Y-39633333D01*
X230495238Y-39633333D01*
X230590476Y-39680952D01*
X230638095Y-39728571D01*
X230685714Y-39823809D01*
X230685714Y-40061904D01*
X230638095Y-40157142D01*
X230590476Y-40204761D01*
X230495238Y-40252380D01*
X230209523Y-40252380D01*
X230114285Y-40204761D01*
X230066666Y-40157142D01*
X229733333Y-42852380D02*
X229400000Y-42376190D01*
X229161904Y-42852380D02*
X229161904Y-41852380D01*
X229542857Y-41852380D01*
X229638095Y-41900000D01*
X229685714Y-41947619D01*
X229733333Y-42042857D01*
X229733333Y-42185714D01*
X229685714Y-42280952D01*
X229638095Y-42328571D01*
X229542857Y-42376190D01*
X229161904Y-42376190D01*
X230590476Y-42185714D02*
X230590476Y-42852380D01*
X230352380Y-41804761D02*
X230114285Y-42519047D01*
X230733333Y-42519047D01*
X229733333Y-45352380D02*
X229400000Y-44876190D01*
X229161904Y-45352380D02*
X229161904Y-44352380D01*
X229542857Y-44352380D01*
X229638095Y-44400000D01*
X229685714Y-44447619D01*
X229733333Y-44542857D01*
X229733333Y-44685714D01*
X229685714Y-44780952D01*
X229638095Y-44828571D01*
X229542857Y-44876190D01*
X229161904Y-44876190D01*
X230638095Y-44352380D02*
X230161904Y-44352380D01*
X230114285Y-44828571D01*
X230161904Y-44780952D01*
X230257142Y-44733333D01*
X230495238Y-44733333D01*
X230590476Y-44780952D01*
X230638095Y-44828571D01*
X230685714Y-44923809D01*
X230685714Y-45161904D01*
X230638095Y-45257142D01*
X230590476Y-45304761D01*
X230495238Y-45352380D01*
X230257142Y-45352380D01*
X230161904Y-45304761D01*
X230114285Y-45257142D01*
X229733333Y-47852380D02*
X229400000Y-47376190D01*
X229161904Y-47852380D02*
X229161904Y-46852380D01*
X229542857Y-46852380D01*
X229638095Y-46900000D01*
X229685714Y-46947619D01*
X229733333Y-47042857D01*
X229733333Y-47185714D01*
X229685714Y-47280952D01*
X229638095Y-47328571D01*
X229542857Y-47376190D01*
X229161904Y-47376190D01*
X230590476Y-46852380D02*
X230400000Y-46852380D01*
X230304761Y-46900000D01*
X230257142Y-46947619D01*
X230161904Y-47090476D01*
X230114285Y-47280952D01*
X230114285Y-47661904D01*
X230161904Y-47757142D01*
X230209523Y-47804761D01*
X230304761Y-47852380D01*
X230495238Y-47852380D01*
X230590476Y-47804761D01*
X230638095Y-47757142D01*
X230685714Y-47661904D01*
X230685714Y-47423809D01*
X230638095Y-47328571D01*
X230590476Y-47280952D01*
X230495238Y-47233333D01*
X230304761Y-47233333D01*
X230209523Y-47280952D01*
X230161904Y-47328571D01*
X230114285Y-47423809D01*
X229733333Y-50452380D02*
X229400000Y-49976190D01*
X229161904Y-50452380D02*
X229161904Y-49452380D01*
X229542857Y-49452380D01*
X229638095Y-49500000D01*
X229685714Y-49547619D01*
X229733333Y-49642857D01*
X229733333Y-49785714D01*
X229685714Y-49880952D01*
X229638095Y-49928571D01*
X229542857Y-49976190D01*
X229161904Y-49976190D01*
X230066666Y-49452380D02*
X230733333Y-49452380D01*
X230304761Y-50452380D01*
X229733333Y-52952380D02*
X229400000Y-52476190D01*
X229161904Y-52952380D02*
X229161904Y-51952380D01*
X229542857Y-51952380D01*
X229638095Y-52000000D01*
X229685714Y-52047619D01*
X229733333Y-52142857D01*
X229733333Y-52285714D01*
X229685714Y-52380952D01*
X229638095Y-52428571D01*
X229542857Y-52476190D01*
X229161904Y-52476190D01*
X230304761Y-52380952D02*
X230209523Y-52333333D01*
X230161904Y-52285714D01*
X230114285Y-52190476D01*
X230114285Y-52142857D01*
X230161904Y-52047619D01*
X230209523Y-52000000D01*
X230304761Y-51952380D01*
X230495238Y-51952380D01*
X230590476Y-52000000D01*
X230638095Y-52047619D01*
X230685714Y-52142857D01*
X230685714Y-52190476D01*
X230638095Y-52285714D01*
X230590476Y-52333333D01*
X230495238Y-52380952D01*
X230304761Y-52380952D01*
X230209523Y-52428571D01*
X230161904Y-52476190D01*
X230114285Y-52571428D01*
X230114285Y-52761904D01*
X230161904Y-52857142D01*
X230209523Y-52904761D01*
X230304761Y-52952380D01*
X230495238Y-52952380D01*
X230590476Y-52904761D01*
X230638095Y-52857142D01*
X230685714Y-52761904D01*
X230685714Y-52571428D01*
X230638095Y-52476190D01*
X230590476Y-52428571D01*
X230495238Y-52380952D01*
X202328095Y-90252380D02*
X202328095Y-91061904D01*
X202375714Y-91157142D01*
X202423333Y-91204761D01*
X202518571Y-91252380D01*
X202709047Y-91252380D01*
X202804285Y-91204761D01*
X202851904Y-91157142D01*
X202899523Y-91061904D01*
X202899523Y-90252380D01*
X203804285Y-90585714D02*
X203804285Y-91252380D01*
X203566190Y-90204761D02*
X203328095Y-90919047D01*
X203947142Y-90919047D01*
X237838095Y-70252380D02*
X237838095Y-71061904D01*
X237885714Y-71157142D01*
X237933333Y-71204761D01*
X238028571Y-71252380D01*
X238219047Y-71252380D01*
X238314285Y-71204761D01*
X238361904Y-71157142D01*
X238409523Y-71061904D01*
X238409523Y-70252380D01*
X239361904Y-70252380D02*
X238885714Y-70252380D01*
X238838095Y-70728571D01*
X238885714Y-70680952D01*
X238980952Y-70633333D01*
X239219047Y-70633333D01*
X239314285Y-70680952D01*
X239361904Y-70728571D01*
X239409523Y-70823809D01*
X239409523Y-71061904D01*
X239361904Y-71157142D01*
X239314285Y-71204761D01*
X239219047Y-71252380D01*
X238980952Y-71252380D01*
X238885714Y-71204761D01*
X238838095Y-71157142D01*
X225838095Y-63252380D02*
X225838095Y-64061904D01*
X225885714Y-64157142D01*
X225933333Y-64204761D01*
X226028571Y-64252380D01*
X226219047Y-64252380D01*
X226314285Y-64204761D01*
X226361904Y-64157142D01*
X226409523Y-64061904D01*
X226409523Y-63252380D01*
X227314285Y-63252380D02*
X227123809Y-63252380D01*
X227028571Y-63300000D01*
X226980952Y-63347619D01*
X226885714Y-63490476D01*
X226838095Y-63680952D01*
X226838095Y-64061904D01*
X226885714Y-64157142D01*
X226933333Y-64204761D01*
X227028571Y-64252380D01*
X227219047Y-64252380D01*
X227314285Y-64204761D01*
X227361904Y-64157142D01*
X227409523Y-64061904D01*
X227409523Y-63823809D01*
X227361904Y-63728571D01*
X227314285Y-63680952D01*
X227219047Y-63633333D01*
X227028571Y-63633333D01*
X226933333Y-63680952D01*
X226885714Y-63728571D01*
X226838095Y-63823809D01*
X226438095Y-89052380D02*
X226438095Y-89861904D01*
X226485714Y-89957142D01*
X226533333Y-90004761D01*
X226628571Y-90052380D01*
X226819047Y-90052380D01*
X226914285Y-90004761D01*
X226961904Y-89957142D01*
X227009523Y-89861904D01*
X227009523Y-89052380D01*
X227390476Y-89052380D02*
X228057142Y-89052380D01*
X227628571Y-90052380D01*
X215328095Y-90052380D02*
X215328095Y-90861904D01*
X215375714Y-90957142D01*
X215423333Y-91004761D01*
X215518571Y-91052380D01*
X215709047Y-91052380D01*
X215804285Y-91004761D01*
X215851904Y-90957142D01*
X215899523Y-90861904D01*
X215899523Y-90052380D01*
X216518571Y-90480952D02*
X216423333Y-90433333D01*
X216375714Y-90385714D01*
X216328095Y-90290476D01*
X216328095Y-90242857D01*
X216375714Y-90147619D01*
X216423333Y-90100000D01*
X216518571Y-90052380D01*
X216709047Y-90052380D01*
X216804285Y-90100000D01*
X216851904Y-90147619D01*
X216899523Y-90242857D01*
X216899523Y-90290476D01*
X216851904Y-90385714D01*
X216804285Y-90433333D01*
X216709047Y-90480952D01*
X216518571Y-90480952D01*
X216423333Y-90528571D01*
X216375714Y-90576190D01*
X216328095Y-90671428D01*
X216328095Y-90861904D01*
X216375714Y-90957142D01*
X216423333Y-91004761D01*
X216518571Y-91052380D01*
X216709047Y-91052380D01*
X216804285Y-91004761D01*
X216851904Y-90957142D01*
X216899523Y-90861904D01*
X216899523Y-90671428D01*
X216851904Y-90576190D01*
X216804285Y-90528571D01*
X216709047Y-90480952D01*
X219838095Y-36252380D02*
X219838095Y-37061904D01*
X219885714Y-37157142D01*
X219933333Y-37204761D01*
X220028571Y-37252380D01*
X220219047Y-37252380D01*
X220314285Y-37204761D01*
X220361904Y-37157142D01*
X220409523Y-37061904D01*
X220409523Y-36252380D01*
X220933333Y-37252380D02*
X221123809Y-37252380D01*
X221219047Y-37204761D01*
X221266666Y-37157142D01*
X221361904Y-37014285D01*
X221409523Y-36823809D01*
X221409523Y-36442857D01*
X221361904Y-36347619D01*
X221314285Y-36300000D01*
X221219047Y-36252380D01*
X221028571Y-36252380D01*
X220933333Y-36300000D01*
X220885714Y-36347619D01*
X220838095Y-36442857D01*
X220838095Y-36680952D01*
X220885714Y-36776190D01*
X220933333Y-36823809D01*
X221028571Y-36871428D01*
X221219047Y-36871428D01*
X221314285Y-36823809D01*
X221361904Y-36776190D01*
X221409523Y-36680952D01*
X212971904Y-66852380D02*
X212971904Y-67661904D01*
X213019523Y-67757142D01*
X213067142Y-67804761D01*
X213162380Y-67852380D01*
X213352857Y-67852380D01*
X213448095Y-67804761D01*
X213495714Y-67757142D01*
X213543333Y-67661904D01*
X213543333Y-66852380D01*
X214543333Y-67852380D02*
X213971904Y-67852380D01*
X214257619Y-67852380D02*
X214257619Y-66852380D01*
X214162380Y-66995238D01*
X214067142Y-67090476D01*
X213971904Y-67138095D01*
X215162380Y-66852380D02*
X215257619Y-66852380D01*
X215352857Y-66900000D01*
X215400476Y-66947619D01*
X215448095Y-67042857D01*
X215495714Y-67233333D01*
X215495714Y-67471428D01*
X215448095Y-67661904D01*
X215400476Y-67757142D01*
X215352857Y-67804761D01*
X215257619Y-67852380D01*
X215162380Y-67852380D01*
X215067142Y-67804761D01*
X215019523Y-67757142D01*
X214971904Y-67661904D01*
X214924285Y-67471428D01*
X214924285Y-67233333D01*
X214971904Y-67042857D01*
X215019523Y-66947619D01*
X215067142Y-66900000D01*
X215162380Y-66852380D01*
X237561904Y-36252380D02*
X237561904Y-37061904D01*
X237609523Y-37157142D01*
X237657142Y-37204761D01*
X237752380Y-37252380D01*
X237942857Y-37252380D01*
X238038095Y-37204761D01*
X238085714Y-37157142D01*
X238133333Y-37061904D01*
X238133333Y-36252380D01*
X239133333Y-37252380D02*
X238561904Y-37252380D01*
X238847619Y-37252380D02*
X238847619Y-36252380D01*
X238752380Y-36395238D01*
X238657142Y-36490476D01*
X238561904Y-36538095D01*
X240085714Y-37252380D02*
X239514285Y-37252380D01*
X239800000Y-37252380D02*
X239800000Y-36252380D01*
X239704761Y-36395238D01*
X239609523Y-36490476D01*
X239514285Y-36538095D01*
X201961904Y-66652380D02*
X201961904Y-67461904D01*
X202009523Y-67557142D01*
X202057142Y-67604761D01*
X202152380Y-67652380D01*
X202342857Y-67652380D01*
X202438095Y-67604761D01*
X202485714Y-67557142D01*
X202533333Y-67461904D01*
X202533333Y-66652380D01*
X203533333Y-67652380D02*
X202961904Y-67652380D01*
X203247619Y-67652380D02*
X203247619Y-66652380D01*
X203152380Y-66795238D01*
X203057142Y-66890476D01*
X202961904Y-66938095D01*
X203914285Y-66747619D02*
X203961904Y-66700000D01*
X204057142Y-66652380D01*
X204295238Y-66652380D01*
X204390476Y-66700000D01*
X204438095Y-66747619D01*
X204485714Y-66842857D01*
X204485714Y-66938095D01*
X204438095Y-67080952D01*
X203866666Y-67652380D01*
X204485714Y-67652380D01*
X237351904Y-119252380D02*
X237351904Y-120061904D01*
X237399523Y-120157142D01*
X237447142Y-120204761D01*
X237542380Y-120252380D01*
X237732857Y-120252380D01*
X237828095Y-120204761D01*
X237875714Y-120157142D01*
X237923333Y-120061904D01*
X237923333Y-119252380D01*
X238923333Y-120252380D02*
X238351904Y-120252380D01*
X238637619Y-120252380D02*
X238637619Y-119252380D01*
X238542380Y-119395238D01*
X238447142Y-119490476D01*
X238351904Y-119538095D01*
X239256666Y-119252380D02*
X239875714Y-119252380D01*
X239542380Y-119633333D01*
X239685238Y-119633333D01*
X239780476Y-119680952D01*
X239828095Y-119728571D01*
X239875714Y-119823809D01*
X239875714Y-120061904D01*
X239828095Y-120157142D01*
X239780476Y-120204761D01*
X239685238Y-120252380D01*
X239399523Y-120252380D01*
X239304285Y-120204761D01*
X239256666Y-120157142D01*
X226351904Y-123652380D02*
X226351904Y-124461904D01*
X226399523Y-124557142D01*
X226447142Y-124604761D01*
X226542380Y-124652380D01*
X226732857Y-124652380D01*
X226828095Y-124604761D01*
X226875714Y-124557142D01*
X226923333Y-124461904D01*
X226923333Y-123652380D01*
X227923333Y-124652380D02*
X227351904Y-124652380D01*
X227637619Y-124652380D02*
X227637619Y-123652380D01*
X227542380Y-123795238D01*
X227447142Y-123890476D01*
X227351904Y-123938095D01*
X228780476Y-123985714D02*
X228780476Y-124652380D01*
X228542380Y-123604761D02*
X228304285Y-124319047D01*
X228923333Y-124319047D01*
X201961904Y-119452380D02*
X201961904Y-120261904D01*
X202009523Y-120357142D01*
X202057142Y-120404761D01*
X202152380Y-120452380D01*
X202342857Y-120452380D01*
X202438095Y-120404761D01*
X202485714Y-120357142D01*
X202533333Y-120261904D01*
X202533333Y-119452380D01*
X203533333Y-120452380D02*
X202961904Y-120452380D01*
X203247619Y-120452380D02*
X203247619Y-119452380D01*
X203152380Y-119595238D01*
X203057142Y-119690476D01*
X202961904Y-119738095D01*
X204390476Y-119452380D02*
X204200000Y-119452380D01*
X204104761Y-119500000D01*
X204057142Y-119547619D01*
X203961904Y-119690476D01*
X203914285Y-119880952D01*
X203914285Y-120261904D01*
X203961904Y-120357142D01*
X204009523Y-120404761D01*
X204104761Y-120452380D01*
X204295238Y-120452380D01*
X204390476Y-120404761D01*
X204438095Y-120357142D01*
X204485714Y-120261904D01*
X204485714Y-120023809D01*
X204438095Y-119928571D01*
X204390476Y-119880952D01*
X204295238Y-119833333D01*
X204104761Y-119833333D01*
X204009523Y-119880952D01*
X203961904Y-119928571D01*
X203914285Y-120023809D01*
X191161904Y-97352380D02*
X191161904Y-96352380D01*
X191400000Y-96352380D01*
X191542857Y-96400000D01*
X191638095Y-96495238D01*
X191685714Y-96590476D01*
X191733333Y-96780952D01*
X191733333Y-96923809D01*
X191685714Y-97114285D01*
X191638095Y-97209523D01*
X191542857Y-97304761D01*
X191400000Y-97352380D01*
X191161904Y-97352380D01*
X192114285Y-96447619D02*
X192161904Y-96400000D01*
X192257142Y-96352380D01*
X192495238Y-96352380D01*
X192590476Y-96400000D01*
X192638095Y-96447619D01*
X192685714Y-96542857D01*
X192685714Y-96638095D01*
X192638095Y-96780952D01*
X192066666Y-97352380D01*
X192685714Y-97352380D01*
X195138095Y-103752380D02*
X195138095Y-102752380D01*
X195709523Y-103752380D02*
X195280952Y-103180952D01*
X195709523Y-102752380D02*
X195138095Y-103323809D01*
X192733333Y-118157142D02*
X192685714Y-118204761D01*
X192542857Y-118252380D01*
X192447619Y-118252380D01*
X192304761Y-118204761D01*
X192209523Y-118109523D01*
X192161904Y-118014285D01*
X192114285Y-117823809D01*
X192114285Y-117680952D01*
X192161904Y-117490476D01*
X192209523Y-117395238D01*
X192304761Y-117300000D01*
X192447619Y-117252380D01*
X192542857Y-117252380D01*
X192685714Y-117300000D01*
X192733333Y-117347619D01*
X193114285Y-117347619D02*
X193161904Y-117300000D01*
X193257142Y-117252380D01*
X193495238Y-117252380D01*
X193590476Y-117300000D01*
X193638095Y-117347619D01*
X193685714Y-117442857D01*
X193685714Y-117538095D01*
X193638095Y-117680952D01*
X193066666Y-118252380D01*
X193685714Y-118252380D01*
X202566666Y-44628571D02*
X202233333Y-44628571D01*
X202233333Y-45152380D02*
X202233333Y-44152380D01*
X202709523Y-44152380D01*
X203614285Y-45152380D02*
X203042857Y-45152380D01*
X203328571Y-45152380D02*
X203328571Y-44152380D01*
X203233333Y-44295238D01*
X203138095Y-44390476D01*
X203042857Y-44438095D01*
X192066666Y-114828571D02*
X191733333Y-114828571D01*
X191733333Y-115352380D02*
X191733333Y-114352380D01*
X192209523Y-114352380D01*
X192542857Y-114447619D02*
X192590476Y-114400000D01*
X192685714Y-114352380D01*
X192923809Y-114352380D01*
X193019047Y-114400000D01*
X193066666Y-114447619D01*
X193114285Y-114542857D01*
X193114285Y-114638095D01*
X193066666Y-114780952D01*
X192495238Y-115352380D01*
X193114285Y-115352380D01*
X213066666Y-44628571D02*
X212733333Y-44628571D01*
X212733333Y-45152380D02*
X212733333Y-44152380D01*
X213209523Y-44152380D01*
X213495238Y-44152380D02*
X214114285Y-44152380D01*
X213780952Y-44533333D01*
X213923809Y-44533333D01*
X214019047Y-44580952D01*
X214066666Y-44628571D01*
X214114285Y-44723809D01*
X214114285Y-44961904D01*
X214066666Y-45057142D01*
X214019047Y-45104761D01*
X213923809Y-45152380D01*
X213638095Y-45152380D01*
X213542857Y-45104761D01*
X213495238Y-45057142D01*
X168966666Y-94152380D02*
X168966666Y-94866666D01*
X168919047Y-95009523D01*
X168823809Y-95104761D01*
X168680952Y-95152380D01*
X168585714Y-95152380D01*
X169395238Y-94247619D02*
X169442857Y-94200000D01*
X169538095Y-94152380D01*
X169776190Y-94152380D01*
X169871428Y-94200000D01*
X169919047Y-94247619D01*
X169966666Y-94342857D01*
X169966666Y-94438095D01*
X169919047Y-94580952D01*
X169347619Y-95152380D01*
X169966666Y-95152380D01*
X176852380Y-113761904D02*
X177661904Y-113761904D01*
X177757142Y-113714285D01*
X177804761Y-113666666D01*
X177852380Y-113571428D01*
X177852380Y-113380952D01*
X177804761Y-113285714D01*
X177757142Y-113238095D01*
X177661904Y-113190476D01*
X176852380Y-113190476D01*
X176947619Y-112761904D02*
X176900000Y-112714285D01*
X176852380Y-112619047D01*
X176852380Y-112380952D01*
X176900000Y-112285714D01*
X176947619Y-112238095D01*
X177042857Y-112190476D01*
X177138095Y-112190476D01*
X177280952Y-112238095D01*
X177852380Y-112809523D01*
X177852380Y-112190476D01*
X196733333Y-124557142D02*
X196685714Y-124604761D01*
X196542857Y-124652380D01*
X196447619Y-124652380D01*
X196304761Y-124604761D01*
X196209523Y-124509523D01*
X196161904Y-124414285D01*
X196114285Y-124223809D01*
X196114285Y-124080952D01*
X196161904Y-123890476D01*
X196209523Y-123795238D01*
X196304761Y-123700000D01*
X196447619Y-123652380D01*
X196542857Y-123652380D01*
X196685714Y-123700000D01*
X196733333Y-123747619D01*
X197685714Y-124652380D02*
X197114285Y-124652380D01*
X197400000Y-124652380D02*
X197400000Y-123652380D01*
X197304761Y-123795238D01*
X197209523Y-123890476D01*
X197114285Y-123938095D01*
X178432380Y-75826666D02*
X177956190Y-76160000D01*
X178432380Y-76398095D02*
X177432380Y-76398095D01*
X177432380Y-76017142D01*
X177480000Y-75921904D01*
X177527619Y-75874285D01*
X177622857Y-75826666D01*
X177765714Y-75826666D01*
X177860952Y-75874285D01*
X177908571Y-75921904D01*
X177956190Y-76017142D01*
X177956190Y-76398095D01*
X178432380Y-75350476D02*
X178432380Y-75160000D01*
X178384761Y-75064761D01*
X178337142Y-75017142D01*
X178194285Y-74921904D01*
X178003809Y-74874285D01*
X177622857Y-74874285D01*
X177527619Y-74921904D01*
X177480000Y-74969523D01*
X177432380Y-75064761D01*
X177432380Y-75255238D01*
X177480000Y-75350476D01*
X177527619Y-75398095D01*
X177622857Y-75445714D01*
X177860952Y-75445714D01*
X177956190Y-75398095D01*
X178003809Y-75350476D01*
X178051428Y-75255238D01*
X178051428Y-75064761D01*
X178003809Y-74969523D01*
X177956190Y-74921904D01*
X177860952Y-74874285D01*
X185352380Y-78842857D02*
X184876190Y-79176190D01*
X185352380Y-79414285D02*
X184352380Y-79414285D01*
X184352380Y-79033333D01*
X184400000Y-78938095D01*
X184447619Y-78890476D01*
X184542857Y-78842857D01*
X184685714Y-78842857D01*
X184780952Y-78890476D01*
X184828571Y-78938095D01*
X184876190Y-79033333D01*
X184876190Y-79414285D01*
X185352380Y-77890476D02*
X185352380Y-78461904D01*
X185352380Y-78176190D02*
X184352380Y-78176190D01*
X184495238Y-78271428D01*
X184590476Y-78366666D01*
X184638095Y-78461904D01*
X184352380Y-77271428D02*
X184352380Y-77176190D01*
X184400000Y-77080952D01*
X184447619Y-77033333D01*
X184542857Y-76985714D01*
X184733333Y-76938095D01*
X184971428Y-76938095D01*
X185161904Y-76985714D01*
X185257142Y-77033333D01*
X185304761Y-77080952D01*
X185352380Y-77176190D01*
X185352380Y-77271428D01*
X185304761Y-77366666D01*
X185257142Y-77414285D01*
X185161904Y-77461904D01*
X184971428Y-77509523D01*
X184733333Y-77509523D01*
X184542857Y-77461904D01*
X184447619Y-77414285D01*
X184400000Y-77366666D01*
X184352380Y-77271428D01*
X209566666Y-35652380D02*
X209566666Y-36366666D01*
X209519047Y-36509523D01*
X209423809Y-36604761D01*
X209280952Y-36652380D01*
X209185714Y-36652380D01*
X209947619Y-35652380D02*
X210566666Y-35652380D01*
X210233333Y-36033333D01*
X210376190Y-36033333D01*
X210471428Y-36080952D01*
X210519047Y-36128571D01*
X210566666Y-36223809D01*
X210566666Y-36461904D01*
X210519047Y-36557142D01*
X210471428Y-36604761D01*
X210376190Y-36652380D01*
X210090476Y-36652380D01*
X209995238Y-36604761D01*
X209947619Y-36557142D01*
X198066666Y-35652380D02*
X198066666Y-36366666D01*
X198019047Y-36509523D01*
X197923809Y-36604761D01*
X197780952Y-36652380D01*
X197685714Y-36652380D01*
X198971428Y-35985714D02*
X198971428Y-36652380D01*
X198733333Y-35604761D02*
X198495238Y-36319047D01*
X199114285Y-36319047D01*
M02*
