M48
; DRILL file {KiCad 5.1.5} date Di 14 Jan 2020 22:00:23 CET
; FORMAT={-:-/ absolute / metric / decimal}
; #@! TF.CreationDate,2020-01-14T22:00:23+01:00
; #@! TF.GenerationSoftware,Kicad,Pcbnew,5.1.5
FMAT,2
METRIC
T1C0.400
T2C0.700
T3C0.800
T4C0.900
T5C0.910
T6C1.000
T7C1.300
T8C1.600
T9C1.650
T10C3.000
T11C3.500
T12C4.300
%
G90
G05
T1
X175.4Y-63.2
X175.4Y-64.2
X175.9Y-121.7
X181.9Y-93.7
X182.4Y-105.55
X182.9Y-71.7
X184.9Y-70.2
X185.607Y-69.493
X197.4Y-99.7
X197.6Y-57.7
X197.6Y-67.2
X197.6Y-74.7
X200.9Y-96.7
X201.352Y-81.248
X201.4Y-71.7
X201.58Y-106.2
X201.9Y-94.2
X202.4Y-72.7
X202.4Y-82.7
X202.4Y-100.7
X202.4Y-111.2
X203.4Y-58.7
X203.4Y-127.7
X204.175Y-73.7
X204.9Y-64.7
X204.9Y-74.7
X209.35Y-127.7
X211.4Y-129.75
X212.9Y-125.65
X213.4Y-70.7
X213.48Y-74.591
X213.9Y-97.2
X213.9Y-109.7
X213.9Y-111.7
X213.9Y-125.65
X214.4Y-70.7
X214.4Y-74.2
X214.9Y-125.65
X216.4Y-72.2
X216.4Y-86.2
X216.625Y-59.2
X216.9Y-127.75
X216.9Y-128.75
X216.9Y-129.75
X220.9Y-68.01
X221.4Y-72.7
X221.4Y-125.7
X222.065Y-44.7
X222.107Y-126.407
X222.9Y-49.7
X225.9Y-59.7
X225.9Y-74.7
X225.9Y-79.7
X225.9Y-127.2
X227.878Y-101.678
X227.9Y-56.7
X228.4Y-85.2
X228.9Y-55.975
X234.125Y-93.7
X236.325Y-74.7
X236.9Y-101.7
X237.452Y-100.866
X238.159Y-100.159
X241.9Y-83.7
X246.45Y-72.7
X252.9Y-64.2
X180.9Y-48.7
X258.4Y-46.2
X164.9Y-105.7
X194.9Y-125.7
X255.4Y-47.7
X226.9Y-96.7
X167.9Y-105.7
X191.9Y-128.7
X183.9Y-48.7
X169.4Y-105.7
X167.9Y-102.7
X179.4Y-44.2
X225.4Y-95.2
X228.4Y-96.7
X183.9Y-45.7
X240.4Y-51.7
X215.4Y-114.7
X228.4Y-95.2
X212.4Y-76.2
X191.9Y-125.7
X164.9Y-102.7
X256.9Y-117.2
X176.4Y-44.2
X255.4Y-44.7
X176.4Y-51.7
X240.4Y-53.2
X208.4Y-80.7
X177.9Y-48.7
X236.9Y-79.2
X183.9Y-44.2
X227.9Y-72.2
X258.4Y-44.7
X258.4Y-47.7
X190.4Y-125.7
X237.4Y-54.7
X179.4Y-50.2
X259.9Y-44.7
X174.4Y-83.7
X176.4Y-47.2
X174.4Y-82.2
X166.4Y-105.7
X226.9Y-92.2
X183.9Y-47.2
X238.9Y-51.7
X255.4Y-46.2
X166.4Y-102.7
X167.9Y-104.2
X259.9Y-118.7
X259.9Y-117.2
X213.9Y-114.7
X215.4Y-105.2
X183.9Y-51.7
X225.4Y-96.7
X244.4Y-97.7
X182.4Y-45.7
X176.4Y-48.7
X182.4Y-48.7
X242.9Y-99.2
X172.9Y-82.2
X179.4Y-45.7
X225.4Y-92.2
X177.4Y-82.2
X172.9Y-83.7
X183.9Y-50.2
X258.4Y-117.2
X169.4Y-102.7
X180.9Y-44.2
X177.9Y-47.2
X180.9Y-50.2
X255.4Y-115.7
X255.4Y-118.7
X190.4Y-128.7
X180.9Y-51.7
X214.9Y-78.7
X179.4Y-51.7
X225.9Y-82.2
X258.4Y-118.7
X259.9Y-46.2
X214.4Y-80.2
X175.9Y-80.7
X169.4Y-104.2
X212.4Y-69.7
X194.9Y-128.7
X226.4Y-70.2
X215.4Y-108.2
X177.9Y-44.2
X177.9Y-50.2
X174.4Y-80.7
X211.9Y-71.2
X238.9Y-54.7
X228.4Y-92.2
X215.4Y-113.2
X212.4Y-77.7
X179.4Y-48.7
X226.4Y-72.2
X227.9Y-70.2
X259.9Y-115.7
X166.4Y-104.2
X237.4Y-51.7
X241.4Y-99.2
X191.9Y-124.2
X226.9Y-95.2
X177.9Y-51.7
X237.4Y-53.2
X177.4Y-80.7
X237.9Y-80.2
X256.9Y-44.7
X256.9Y-47.7
X240.4Y-54.7
X172.9Y-80.7
X214.4Y-81.7
X176.4Y-50.2
X238.9Y-53.2
X175.9Y-82.2
X182.4Y-51.7
X193.4Y-128.7
X227.9Y-80.2
X190.4Y-124.2
X256.9Y-46.2
X179.4Y-47.2
X227.9Y-67.7
X177.9Y-45.7
X242.9Y-97.7
X241.4Y-97.7
X182.4Y-44.2
X177.4Y-83.7
X226.9Y-93.7
X215.4Y-116.2
X175.9Y-83.7
X176.4Y-45.7
X193.4Y-124.2
X258.4Y-115.7
X244.4Y-99.2
X228.4Y-93.7
X236.9Y-80.2
X215.4Y-106.7
X227.4Y-74.7
X225.4Y-81.2
X193.4Y-125.7
X255.4Y-117.2
X194.9Y-124.2
X256.9Y-115.7
X225.4Y-93.7
X180.9Y-47.2
X182.4Y-50.2
X256.9Y-118.7
X182.4Y-47.2
X180.9Y-45.7
X164.9Y-104.2
X259.9Y-47.7
T2
X227.28Y-37.24
X232.36Y-37.24
X227.28Y-52.48
X232.36Y-52.48
X227.28Y-34.7
X232.36Y-34.7
X227.28Y-47.4
X232.36Y-47.4
X182.9Y-75.62
X182.9Y-80.7
X227.28Y-44.86
X232.36Y-44.86
X227.28Y-49.94
X232.36Y-49.94
X227.28Y-42.32
X232.36Y-42.32
X179.9Y-73.12
X179.9Y-78.2
X227.28Y-39.78
X232.36Y-39.78
T3
X202.9Y-130.2
X219.728Y-124.051
X230.986Y-77.52
X223.78Y-112.2
X223.78Y-114.74
X223.78Y-117.28
X223.78Y-119.82
X223.78Y-122.36
X223.78Y-124.9
X223.78Y-127.44
X223.78Y-129.98
X231.4Y-112.2
X231.4Y-114.74
X231.4Y-117.28
X231.4Y-119.82
X231.4Y-122.36
X231.4Y-124.9
X231.4Y-127.44
X231.4Y-129.98
X199.28Y-106.2
X199.28Y-108.74
X199.28Y-111.28
X199.28Y-113.82
X199.28Y-116.36
X199.28Y-118.9
X199.28Y-121.44
X199.28Y-123.98
X206.9Y-106.2
X206.9Y-108.74
X206.9Y-111.28
X206.9Y-113.82
X206.9Y-116.36
X206.9Y-118.9
X206.9Y-121.44
X206.9Y-123.98
X234.9Y-59.7
X234.9Y-62.24
X234.9Y-64.78
X234.9Y-67.32
X234.9Y-69.86
X234.9Y-72.4
X234.9Y-74.94
X234.9Y-77.48
X234.9Y-80.02
X242.52Y-59.7
X242.52Y-62.24
X242.52Y-64.78
X242.52Y-67.32
X242.52Y-69.86
X242.52Y-72.4
X242.52Y-74.94
X242.52Y-77.48
X242.52Y-80.02
X210.4Y-104.7
X210.4Y-107.24
X210.4Y-109.78
X210.4Y-112.32
X210.4Y-114.86
X210.4Y-117.4
X210.4Y-119.94
X210.4Y-122.48
X210.4Y-125.02
X218.02Y-104.7
X218.02Y-107.24
X218.02Y-109.78
X218.02Y-112.32
X218.02Y-114.86
X218.02Y-117.4
X218.02Y-119.94
X218.02Y-122.48
X218.02Y-125.02
X199.28Y-79.2
X199.28Y-81.74
X199.28Y-84.28
X199.28Y-86.82
X199.28Y-89.36
X199.28Y-91.9
X199.28Y-94.44
X199.28Y-96.98
X199.28Y-99.52
X199.28Y-102.06
X206.9Y-79.2
X206.9Y-81.74
X206.9Y-84.28
X206.9Y-86.82
X206.9Y-89.36
X206.9Y-91.9
X206.9Y-94.44
X206.9Y-96.98
X206.9Y-99.52
X206.9Y-102.06
X216.78Y-34.7
X216.78Y-37.24
X216.78Y-39.78
X216.78Y-42.32
X216.78Y-44.86
X216.78Y-47.4
X216.78Y-49.94
X216.78Y-52.48
X224.4Y-34.7
X224.4Y-37.24
X224.4Y-39.78
X224.4Y-42.32
X224.4Y-44.86
X224.4Y-47.4
X224.4Y-49.94
X224.4Y-52.48
X210.4Y-57.2
X210.4Y-59.74
X210.4Y-62.28
X210.4Y-64.82
X210.4Y-67.36
X210.4Y-69.9
X210.4Y-72.44
X210.4Y-74.98
X210.4Y-77.52
X218.02Y-57.2
X218.02Y-59.74
X218.02Y-62.28
X218.02Y-64.82
X218.02Y-67.36
X218.02Y-69.9
X218.02Y-72.44
X218.02Y-74.98
X218.02Y-77.52
X190.4Y-119.2
X190.4Y-121.7
X195.9Y-119.2
X195.9Y-121.7
X199.28Y-57.2
X199.28Y-59.74
X199.28Y-62.28
X199.28Y-64.82
X199.28Y-67.36
X199.28Y-69.9
X199.28Y-72.44
X199.28Y-74.98
X206.9Y-57.2
X206.9Y-59.74
X206.9Y-62.28
X206.9Y-64.82
X206.9Y-67.36
X206.9Y-69.9
X206.9Y-72.44
X206.9Y-74.98
X234.9Y-34.7
X234.9Y-37.24
X234.9Y-39.78
X234.9Y-42.32
X234.9Y-44.86
X234.9Y-47.4
X234.9Y-49.94
X234.9Y-52.48
X234.9Y-55.02
X242.52Y-34.7
X242.52Y-37.24
X242.52Y-39.78
X242.52Y-42.32
X242.52Y-44.86
X242.52Y-47.4
X242.52Y-49.94
X242.52Y-52.48
X242.52Y-55.02
X234.78Y-109.7
X234.78Y-112.24
X234.78Y-114.78
X234.78Y-117.32
X234.78Y-119.86
X234.78Y-122.4
X234.78Y-124.94
X234.78Y-127.48
X234.78Y-130.02
X242.4Y-109.7
X242.4Y-112.24
X242.4Y-114.78
X242.4Y-117.32
X242.4Y-119.86
X242.4Y-122.4
X242.4Y-124.94
X242.4Y-127.48
X242.4Y-130.02
X224.28Y-57.16
X224.28Y-59.7
X224.28Y-62.24
X224.28Y-64.78
X224.28Y-67.32
X224.28Y-69.86
X224.28Y-72.4
X224.28Y-74.94
X231.9Y-57.16
X231.9Y-59.7
X231.9Y-62.24
X231.9Y-64.78
X231.9Y-67.32
X231.9Y-69.86
X231.9Y-72.4
X231.9Y-74.94
X223.4Y-79.7
X223.4Y-82.24
X223.4Y-84.78
X223.4Y-87.32
X223.4Y-89.86
X223.4Y-92.4
X223.4Y-94.94
X223.4Y-97.48
X223.4Y-100.02
X231.02Y-79.7
X231.02Y-82.24
X231.02Y-84.78
X231.02Y-87.32
X231.02Y-89.86
X231.02Y-92.4
X231.02Y-94.94
X231.02Y-97.48
X231.02Y-100.02
X212.28Y-81.42
X212.28Y-83.96
X212.28Y-86.5
X212.28Y-89.04
X212.28Y-91.58
X212.28Y-94.12
X212.28Y-96.66
X212.28Y-99.2
X219.9Y-81.42
X219.9Y-83.96
X219.9Y-86.5
X219.9Y-89.04
X219.9Y-91.58
X219.9Y-94.12
X219.9Y-96.66
X219.9Y-99.2
T4
X184.4Y-90.08
X184.4Y-97.7
T5
X247.86Y-45.34
X247.86Y-47.88
X247.86Y-50.42
X247.86Y-52.96
X247.86Y-55.5
X247.86Y-58.04
X247.86Y-60.58
X247.86Y-63.12
X247.86Y-65.66
X247.86Y-68.2
X247.86Y-70.74
X247.86Y-73.28
X247.86Y-75.82
X247.86Y-78.36
X247.86Y-80.9
X247.86Y-83.44
X247.86Y-85.98
X247.86Y-88.52
X247.86Y-91.06
X247.86Y-93.6
X247.86Y-96.14
X247.86Y-98.68
X247.86Y-101.22
X247.86Y-103.76
X247.86Y-106.3
X247.86Y-108.84
X247.86Y-111.38
X247.86Y-113.92
X247.86Y-116.46
X247.86Y-119.0
X250.4Y-45.34
X250.4Y-47.88
X250.4Y-50.42
X250.4Y-52.96
X250.4Y-55.5
X250.4Y-58.04
X250.4Y-60.58
X250.4Y-63.12
X250.4Y-65.66
X250.4Y-68.2
X250.4Y-70.74
X250.4Y-73.28
X250.4Y-75.82
X250.4Y-78.36
X250.4Y-80.9
X250.4Y-83.44
X250.4Y-85.98
X250.4Y-88.52
X250.4Y-91.06
X250.4Y-93.6
X250.4Y-96.14
X250.4Y-98.68
X250.4Y-101.22
X250.4Y-103.76
X250.4Y-106.3
X250.4Y-108.84
X250.4Y-111.38
X250.4Y-113.92
X250.4Y-116.46
X250.4Y-119.0
T6
X185.814Y-119.614
X184.02Y-110.46
X184.02Y-113.0
X184.02Y-115.54
X206.4Y-49.7
X211.48Y-49.71
X189.82Y-111.69
X194.9Y-111.7
X186.56Y-125.7
X186.56Y-128.24
X181.48Y-125.7
X181.48Y-128.24
X178.94Y-125.7
X178.94Y-128.24
X195.9Y-49.7
X200.98Y-49.71
X184.02Y-125.7
X184.02Y-128.24
X176.4Y-125.7
X176.4Y-128.24
X165.73Y-43.7
X165.73Y-46.24
X165.73Y-48.78
X165.73Y-51.32
X165.73Y-53.86
X165.73Y-56.4
X165.73Y-58.94
X165.73Y-61.48
X165.73Y-64.02
X165.73Y-66.56
X165.73Y-69.1
X165.73Y-71.64
X165.73Y-74.18
X165.73Y-76.72
X165.73Y-79.26
X191.13Y-43.7
X191.13Y-46.24
X191.13Y-48.78
X191.13Y-51.32
X191.13Y-53.86
X191.13Y-56.4
X191.13Y-58.94
X191.13Y-61.48
X191.13Y-64.02
X191.13Y-66.56
X191.13Y-69.1
X191.13Y-71.64
X191.13Y-74.18
X191.13Y-76.72
X191.13Y-79.26
T7
X195.9Y-39.2
X200.9Y-39.2
X207.4Y-39.2
X212.4Y-39.2
T8
X191.9Y-90.5
X191.9Y-103.2
T9
X178.9Y-90.7
X178.9Y-94.66
X178.9Y-98.62
T10
X166.46Y-83.26
X190.4Y-35.7
X190.4Y-83.26
T11
X167.36Y-113.0
T12
X168.4Y-127.2
X258.4Y-127.2
X258.4Y-37.2
X168.4Y-37.2
T0
M30
